<svg width="225" height="247" viewBox="0 0 225 247" fill="none" xmlns="http://www.w3.org/2000/svg">
<path d="M220.635 238.674H213.697V20.8146C213.697 18.5149 211.833 16.6518 209.534 16.6518H131.826C129.527 16.6518 127.663 18.5149 127.663 20.8146V38.8538H119.338V20.8146C119.338 18.5149 117.474 16.6518 115.175 16.6518H97.1352V4.16282C97.1352 1.86311 95.2711 0 92.9723 0C90.6736 0 88.8095 1.86311 88.8095 4.16282V16.6518H70.7703C68.4711 16.6518 66.6075 18.5149 66.6075 20.8146V38.8538H54.1186C51.8193 38.8538 49.9558 40.7169 49.9558 43.0166V77.7076H15.2648C12.9656 77.7076 11.102 79.5707 11.102 81.8704V238.674H4.16282C1.8636 238.674 0 240.537 0 242.837C0 245.136 1.86408 247 4.16282 247H220.635C222.934 247 224.798 245.137 224.798 242.837C224.798 240.537 222.934 238.674 220.635 238.674ZM74.9327 24.9774H111.011V38.8538H74.9327V24.9774ZM61.0563 238.674H58.2809V231.736C58.2809 229.436 56.4168 227.573 54.1181 227.573C51.8193 227.573 49.9553 229.436 49.9553 231.736V238.674H47.1799V224.798H61.0563V238.674ZM88.809 131.826V138.987V238.674H69.3819V220.635C69.3819 218.335 67.5178 216.472 65.2191 216.472H43.0171C40.7179 216.472 38.8543 218.335 38.8543 220.635V238.674H19.4271V86.0337H88.809V131.826ZM92.9719 77.708H58.2809V47.1799H127.663V127.663H97.1352V113.786H109.624C111.923 113.786 113.787 111.923 113.787 109.624C113.787 107.324 111.923 105.461 109.624 105.461H97.1352V91.5844H109.624C111.923 91.5844 113.787 89.7213 113.787 87.4216C113.787 85.1219 111.923 83.2588 109.624 83.2588H97.1352V81.8713C97.1352 79.5711 95.2711 77.708 92.9719 77.708ZM166.517 238.674H97.1352V138.987V135.989H166.517V238.674ZM205.371 238.674H174.843V131.826V126.275C174.843 123.975 172.979 122.112 170.68 122.112C168.381 122.112 166.517 123.975 166.517 126.275V127.662H158.191V126.275C158.191 123.975 156.327 122.112 154.029 122.112C151.73 122.112 149.866 123.975 149.866 126.275V127.662H135.989V43.0171V24.9774H205.371V238.674H205.371Z" fill="url(#paint0_radial)"/>
<path d="M115.174 230.349C117.473 230.349 119.337 228.485 119.337 226.186V148.479C119.337 146.179 117.473 144.316 115.174 144.316C112.875 144.316 111.011 146.179 111.011 148.479V226.187C111.011 228.486 112.875 230.349 115.174 230.349Z" fill="url(#paint1_radial)"/>
<path d="M131.826 230.349C134.125 230.349 135.989 228.485 135.989 226.186V148.479C135.989 146.179 134.125 144.316 131.826 144.316C129.527 144.316 127.663 146.179 127.663 148.479V226.187C127.663 228.486 129.527 230.349 131.826 230.349Z" fill="url(#paint2_radial)"/>
<path d="M148.477 230.349C150.776 230.349 152.64 228.485 152.64 226.186V148.479C152.64 146.179 150.776 144.316 148.477 144.316C146.179 144.316 144.314 146.179 144.314 148.479V226.187C144.314 228.486 146.179 230.349 148.477 230.349Z" fill="url(#paint3_radial)"/>
<path d="M154.028 52.7304C156.327 52.7304 158.191 50.8673 158.191 48.5676V43.0173C158.191 40.7176 156.327 38.8545 154.028 38.8545C151.729 38.8545 149.865 40.7176 149.865 43.0173V48.5681C149.865 50.8673 151.729 52.7304 154.028 52.7304Z" fill="url(#paint4_radial)"/>
<path d="M170.68 52.7304C172.979 52.7304 174.843 50.8673 174.843 48.5676V43.0173C174.843 40.7176 172.979 38.8545 170.68 38.8545C168.381 38.8545 166.517 40.7176 166.517 43.0173V48.5681C166.517 50.8673 168.381 52.7304 170.68 52.7304Z" fill="url(#paint5_radial)"/>
<path d="M187.332 52.7304C189.631 52.7304 191.495 50.8673 191.495 48.5676V43.0173C191.495 40.7176 189.631 38.8545 187.332 38.8545C185.033 38.8545 183.169 40.7176 183.169 43.0173V48.5681C183.169 50.8673 185.033 52.7304 187.332 52.7304Z" fill="url(#paint6_radial)"/>
<path d="M154.028 80.4828C156.327 80.4828 158.191 78.6197 158.191 76.32V70.7693C158.191 68.4696 156.327 66.6064 154.028 66.6064C151.729 66.6064 149.865 68.4696 149.865 70.7693V76.32C149.865 78.6197 151.729 80.4828 154.028 80.4828Z" fill="url(#paint7_radial)"/>
<path d="M170.68 80.4828C172.979 80.4828 174.843 78.6197 174.843 76.32V70.7693C174.843 68.4696 172.979 66.6064 170.68 66.6064C168.381 66.6064 166.517 68.4696 166.517 70.7693V76.32C166.517 78.6197 168.381 80.4828 170.68 80.4828Z" fill="url(#paint8_radial)"/>
<path d="M187.332 80.4828C189.631 80.4828 191.495 78.6197 191.495 76.32V70.7693C191.495 68.4696 189.631 66.6064 187.332 66.6064C185.033 66.6064 183.169 68.4696 183.169 70.7693V76.32C183.169 78.6197 185.033 80.4828 187.332 80.4828Z" fill="url(#paint9_radial)"/>
<path d="M154.028 108.236C156.327 108.236 158.191 106.373 158.191 104.073V98.5227C158.191 96.223 156.327 94.3599 154.028 94.3599C151.729 94.3599 149.865 96.223 149.865 98.5227V104.073C149.865 106.373 151.729 108.236 154.028 108.236Z" fill="url(#paint10_radial)"/>
<path d="M170.68 108.236C172.979 108.236 174.843 106.373 174.843 104.073V98.5227C174.843 96.223 172.979 94.3599 170.68 94.3599C168.381 94.3599 166.517 96.223 166.517 98.5227V104.073C166.517 106.373 168.381 108.236 170.68 108.236Z" fill="url(#paint11_radial)"/>
<path d="M187.332 108.236C189.631 108.236 191.495 106.373 191.495 104.073V98.5227C191.495 96.223 189.631 94.3599 187.332 94.3599C185.033 94.3599 183.169 96.223 183.169 98.5227V104.073C183.169 106.373 185.033 108.236 187.332 108.236Z" fill="url(#paint12_radial)"/>
<path d="M37.4665 119.337C39.7658 119.337 41.6293 117.474 41.6293 115.175V109.624C41.6293 107.324 39.7653 105.461 37.4665 105.461C35.1678 105.461 33.3037 107.324 33.3037 109.624V115.175C33.3037 117.474 35.1678 119.337 37.4665 119.337Z" fill="url(#paint13_radial)"/>
<path d="M54.1179 119.337C56.4171 119.337 58.2807 117.474 58.2807 115.175V109.624C58.2807 107.324 56.4166 105.461 54.1179 105.461C51.8192 105.461 49.9551 107.324 49.9551 109.624V115.175C49.9551 117.474 51.8187 119.337 54.1179 119.337Z" fill="url(#paint14_radial)"/>
<path d="M70.7698 119.337C73.069 119.337 74.9326 117.474 74.9326 115.175V109.624C74.9326 107.324 73.0685 105.461 70.7698 105.461C68.471 105.461 66.6069 107.324 66.6069 109.624V115.175C66.6069 117.474 68.4705 119.337 70.7698 119.337Z" fill="url(#paint15_radial)"/>
<path d="M37.4665 147.09C39.7658 147.09 41.6293 145.227 41.6293 142.927V137.376C41.6293 135.076 39.7653 133.213 37.4665 133.213C35.1678 133.213 33.3037 135.076 33.3037 137.376V142.927C33.3037 145.226 35.1678 147.09 37.4665 147.09Z" fill="url(#paint16_radial)"/>
<path d="M54.1179 147.09C56.4171 147.09 58.2807 145.227 58.2807 142.927V137.376C58.2807 135.076 56.4166 133.213 54.1179 133.213C51.8192 133.213 49.9551 135.076 49.9551 137.376V142.927C49.9551 145.226 51.8187 147.09 54.1179 147.09Z" fill="url(#paint17_radial)"/>
<path d="M70.7698 147.09C73.069 147.09 74.9326 145.227 74.9326 142.927V137.376C74.9326 135.076 73.0685 133.213 70.7698 133.213C68.471 133.213 66.6069 135.076 66.6069 137.376V142.927C66.6069 145.226 68.4705 147.09 70.7698 147.09Z" fill="url(#paint18_radial)"/>
<path d="M37.4665 174.843C39.7658 174.843 41.6293 172.98 41.6293 170.68V165.129C41.6293 162.829 39.7653 160.966 37.4665 160.966C35.1678 160.966 33.3037 162.829 33.3037 165.129V170.68C33.3037 172.98 35.1678 174.843 37.4665 174.843Z" fill="url(#paint19_radial)"/>
<path d="M54.1179 174.843C56.4171 174.843 58.2807 172.98 58.2807 170.68V165.129C58.2807 162.829 56.4166 160.966 54.1179 160.966C51.8192 160.966 49.9551 162.829 49.9551 165.129V170.68C49.9551 172.98 51.8187 174.843 54.1179 174.843Z" fill="url(#paint20_radial)"/>
<path d="M70.7698 174.843C73.069 174.843 74.9326 172.98 74.9326 170.68V165.129C74.9326 162.829 73.0685 160.966 70.7698 160.966C68.471 160.966 66.6069 162.829 66.6069 165.129V170.68C66.6069 172.98 68.4705 174.843 70.7698 174.843Z" fill="url(#paint21_radial)"/>
<path d="M37.4665 202.596C39.7658 202.596 41.6293 200.732 41.6293 198.433V192.882C41.6293 190.582 39.7653 188.719 37.4665 188.719C35.1678 188.719 33.3037 190.582 33.3037 192.882V198.433C33.3037 200.732 35.1678 202.596 37.4665 202.596Z" fill="url(#paint22_radial)"/>
<path d="M54.1179 202.596C56.4171 202.596 58.2807 200.732 58.2807 198.433V192.882C58.2807 190.582 56.4166 188.719 54.1179 188.719C51.8192 188.719 49.9551 190.582 49.9551 192.882V198.433C49.9551 200.732 51.8187 202.596 54.1179 202.596Z" fill="url(#paint23_radial)"/>
<path d="M70.7698 202.596C73.069 202.596 74.9326 200.732 74.9326 198.433V192.882C74.9326 190.582 73.0685 188.719 70.7698 188.719C68.471 188.719 66.6069 190.582 66.6069 192.882V198.433C66.6069 200.732 68.4705 202.596 70.7698 202.596Z" fill="url(#paint24_radial)"/>
<path d="M187.332 135.989C189.631 135.989 191.495 134.126 191.495 131.826V126.276C191.495 123.976 189.631 122.113 187.332 122.113C185.033 122.113 183.169 123.976 183.169 126.276V131.826C183.169 134.126 185.033 135.989 187.332 135.989Z" fill="url(#paint25_radial)"/>
<path d="M187.332 163.742C189.631 163.742 191.495 161.878 191.495 159.579V154.028C191.495 151.728 189.631 149.865 187.332 149.865C185.033 149.865 183.169 151.728 183.169 154.028V159.579C183.169 161.878 185.033 163.742 187.332 163.742Z" fill="url(#paint26_radial)"/>
<path d="M187.332 191.495C189.631 191.495 191.495 189.631 191.495 187.332V181.781C191.495 179.481 189.631 177.618 187.332 177.618C185.033 177.618 183.169 179.481 183.169 181.781V187.332C183.169 189.631 185.033 191.495 187.332 191.495Z" fill="url(#paint27_radial)"/>
<path d="M187.332 219.247C189.631 219.247 191.495 217.384 191.495 215.085V209.534C191.495 207.234 189.631 205.371 187.332 205.371C185.033 205.371 183.169 207.234 183.169 209.534V215.085C183.169 217.384 185.033 219.247 187.332 219.247Z" fill="url(#paint28_radial)"/>
<path d="M113.786 65.219C113.786 62.9193 111.922 61.0562 109.624 61.0562H76.32C74.0208 61.0562 72.1572 62.9193 72.1572 65.219C72.1572 67.5187 74.0213 69.3818 76.32 69.3818H109.624C111.923 69.3818 113.786 67.5187 113.786 65.219Z" fill="url(#paint29_radial)"/>
<defs>
<radialGradient id="paint0_radial" cx="0" cy="0" r="1" gradientUnits="userSpaceOnUse" gradientTransform="translate(112.399 123.5) rotate(90) scale(123.5 112.399)">
<stop stop-color="#004279"/>
<stop offset="1" stop-color="#55A048"/>
</radialGradient>
<radialGradient id="paint1_radial" cx="0" cy="0" r="1" gradientUnits="userSpaceOnUse" gradientTransform="translate(115.174 187.333) rotate(90) scale(43.0166 4.16282)">
<stop stop-color="#004279"/>
<stop offset="1" stop-color="#55A048"/>
</radialGradient>
<radialGradient id="paint2_radial" cx="0" cy="0" r="1" gradientUnits="userSpaceOnUse" gradientTransform="translate(131.826 187.333) rotate(90) scale(43.0166 4.16282)">
<stop stop-color="#004279"/>
<stop offset="1" stop-color="#55A048"/>
</radialGradient>
<radialGradient id="paint3_radial" cx="0" cy="0" r="1" gradientUnits="userSpaceOnUse" gradientTransform="translate(148.477 187.333) rotate(90) scale(43.0166 4.16282)">
<stop stop-color="#004279"/>
<stop offset="1" stop-color="#55A048"/>
</radialGradient>
<radialGradient id="paint4_radial" cx="0" cy="0" r="1" gradientUnits="userSpaceOnUse" gradientTransform="translate(154.028 45.7924) rotate(90) scale(6.93795 4.16282)">
<stop stop-color="#004279"/>
<stop offset="1" stop-color="#55A048"/>
</radialGradient>
<radialGradient id="paint5_radial" cx="0" cy="0" r="1" gradientUnits="userSpaceOnUse" gradientTransform="translate(170.68 45.7924) rotate(90) scale(6.93795 4.16282)">
<stop stop-color="#004279"/>
<stop offset="1" stop-color="#55A048"/>
</radialGradient>
<radialGradient id="paint6_radial" cx="0" cy="0" r="1" gradientUnits="userSpaceOnUse" gradientTransform="translate(187.332 45.7924) rotate(90) scale(6.93795 4.16282)">
<stop stop-color="#004279"/>
<stop offset="1" stop-color="#55A048"/>
</radialGradient>
<radialGradient id="paint7_radial" cx="0" cy="0" r="1" gradientUnits="userSpaceOnUse" gradientTransform="translate(154.028 73.5446) rotate(90) scale(6.93819 4.16282)">
<stop stop-color="#004279"/>
<stop offset="1" stop-color="#55A048"/>
</radialGradient>
<radialGradient id="paint8_radial" cx="0" cy="0" r="1" gradientUnits="userSpaceOnUse" gradientTransform="translate(170.68 73.5446) rotate(90) scale(6.93819 4.16282)">
<stop stop-color="#004279"/>
<stop offset="1" stop-color="#55A048"/>
</radialGradient>
<radialGradient id="paint9_radial" cx="0" cy="0" r="1" gradientUnits="userSpaceOnUse" gradientTransform="translate(187.332 73.5446) rotate(90) scale(6.93819 4.16282)">
<stop stop-color="#004279"/>
<stop offset="1" stop-color="#55A048"/>
</radialGradient>
<radialGradient id="paint10_radial" cx="0" cy="0" r="1" gradientUnits="userSpaceOnUse" gradientTransform="translate(154.028 101.298) rotate(90) scale(6.93819 4.16282)">
<stop stop-color="#004279"/>
<stop offset="1" stop-color="#55A048"/>
</radialGradient>
<radialGradient id="paint11_radial" cx="0" cy="0" r="1" gradientUnits="userSpaceOnUse" gradientTransform="translate(170.68 101.298) rotate(90) scale(6.93819 4.16282)">
<stop stop-color="#004279"/>
<stop offset="1" stop-color="#55A048"/>
</radialGradient>
<radialGradient id="paint12_radial" cx="0" cy="0" r="1" gradientUnits="userSpaceOnUse" gradientTransform="translate(187.332 101.298) rotate(90) scale(6.93819 4.16282)">
<stop stop-color="#004279"/>
<stop offset="1" stop-color="#55A048"/>
</radialGradient>
<radialGradient id="paint13_radial" cx="0" cy="0" r="1" gradientUnits="userSpaceOnUse" gradientTransform="translate(37.4665 112.399) rotate(90) scale(6.93819 4.16282)">
<stop stop-color="#004279"/>
<stop offset="1" stop-color="#55A048"/>
</radialGradient>
<radialGradient id="paint14_radial" cx="0" cy="0" r="1" gradientUnits="userSpaceOnUse" gradientTransform="translate(54.1179 112.399) rotate(90) scale(6.93819 4.16282)">
<stop stop-color="#004279"/>
<stop offset="1" stop-color="#55A048"/>
</radialGradient>
<radialGradient id="paint15_radial" cx="0" cy="0" r="1" gradientUnits="userSpaceOnUse" gradientTransform="translate(70.7698 112.399) rotate(90) scale(6.93819 4.16282)">
<stop stop-color="#004279"/>
<stop offset="1" stop-color="#55A048"/>
</radialGradient>
<radialGradient id="paint16_radial" cx="0" cy="0" r="1" gradientUnits="userSpaceOnUse" gradientTransform="translate(37.4665 140.152) rotate(90) scale(6.93819 4.16282)">
<stop stop-color="#004279"/>
<stop offset="1" stop-color="#55A048"/>
</radialGradient>
<radialGradient id="paint17_radial" cx="0" cy="0" r="1" gradientUnits="userSpaceOnUse" gradientTransform="translate(54.1179 140.152) rotate(90) scale(6.93819 4.16282)">
<stop stop-color="#004279"/>
<stop offset="1" stop-color="#55A048"/>
</radialGradient>
<radialGradient id="paint18_radial" cx="0" cy="0" r="1" gradientUnits="userSpaceOnUse" gradientTransform="translate(70.7698 140.152) rotate(90) scale(6.93819 4.16282)">
<stop stop-color="#004279"/>
<stop offset="1" stop-color="#55A048"/>
</radialGradient>
<radialGradient id="paint19_radial" cx="0" cy="0" r="1" gradientUnits="userSpaceOnUse" gradientTransform="translate(37.4665 167.905) rotate(90) scale(6.93819 4.16282)">
<stop stop-color="#004279"/>
<stop offset="1" stop-color="#55A048"/>
</radialGradient>
<radialGradient id="paint20_radial" cx="0" cy="0" r="1" gradientUnits="userSpaceOnUse" gradientTransform="translate(54.1179 167.905) rotate(90) scale(6.93819 4.16282)">
<stop stop-color="#004279"/>
<stop offset="1" stop-color="#55A048"/>
</radialGradient>
<radialGradient id="paint21_radial" cx="0" cy="0" r="1" gradientUnits="userSpaceOnUse" gradientTransform="translate(70.7698 167.905) rotate(90) scale(6.93819 4.16282)">
<stop stop-color="#004279"/>
<stop offset="1" stop-color="#55A048"/>
</radialGradient>
<radialGradient id="paint22_radial" cx="0" cy="0" r="1" gradientUnits="userSpaceOnUse" gradientTransform="translate(37.4665 195.657) rotate(90) scale(6.93819 4.16282)">
<stop stop-color="#004279"/>
<stop offset="1" stop-color="#55A048"/>
</radialGradient>
<radialGradient id="paint23_radial" cx="0" cy="0" r="1" gradientUnits="userSpaceOnUse" gradientTransform="translate(54.1179 195.657) rotate(90) scale(6.93819 4.16282)">
<stop stop-color="#004279"/>
<stop offset="1" stop-color="#55A048"/>
</radialGradient>
<radialGradient id="paint24_radial" cx="0" cy="0" r="1" gradientUnits="userSpaceOnUse" gradientTransform="translate(70.7698 195.657) rotate(90) scale(6.93819 4.16282)">
<stop stop-color="#004279"/>
<stop offset="1" stop-color="#55A048"/>
</radialGradient>
<radialGradient id="paint25_radial" cx="0" cy="0" r="1" gradientUnits="userSpaceOnUse" gradientTransform="translate(187.332 129.051) rotate(90) scale(6.93819 4.16282)">
<stop stop-color="#004279"/>
<stop offset="1" stop-color="#55A048"/>
</radialGradient>
<radialGradient id="paint26_radial" cx="0" cy="0" r="1" gradientUnits="userSpaceOnUse" gradientTransform="translate(187.332 156.803) rotate(90) scale(6.93819 4.16282)">
<stop stop-color="#004279"/>
<stop offset="1" stop-color="#55A048"/>
</radialGradient>
<radialGradient id="paint27_radial" cx="0" cy="0" r="1" gradientUnits="userSpaceOnUse" gradientTransform="translate(187.332 184.556) rotate(90) scale(6.93819 4.16282)">
<stop stop-color="#004279"/>
<stop offset="1" stop-color="#55A048"/>
</radialGradient>
<radialGradient id="paint28_radial" cx="0" cy="0" r="1" gradientUnits="userSpaceOnUse" gradientTransform="translate(187.332 212.309) rotate(90) scale(6.93819 4.16282)">
<stop stop-color="#004279"/>
<stop offset="1" stop-color="#55A048"/>
</radialGradient>
<radialGradient id="paint29_radial" cx="0" cy="0" r="1" gradientUnits="userSpaceOnUse" gradientTransform="translate(92.9718 65.219) rotate(90) scale(4.16282 20.8146)">
<stop stop-color="#004279"/>
<stop offset="1" stop-color="#55A048"/>
</radialGradient>
</defs>
</svg>
