<svg width="170" height="170" viewBox="0 0 170 170" fill="none" xmlns="http://www.w3.org/2000/svg">
<path d="M45.5796 153.12C44.4034 146.515 38.5982 141.497 31.6634 141.533C26.1263 141.562 21.3453 144.804 19.0775 149.478C18.623 149.157 18.1377 148.873 17.6388 148.617L17.3981 102.235C17.3901 100.683 16.1236 99.4297 14.5714 99.4378C13.0192 99.4458 11.7659 100.712 11.774 102.264L12.0074 147.259C5.80392 147.291 0.784971 152.363 0.817161 158.567C0.84935 164.77 5.92065 169.789 12.1242 169.757L43.0583 169.596C47.7096 169.572 51.4752 165.767 51.4511 161.116C51.4316 157.373 48.9656 154.205 45.5796 153.12ZM43.0291 163.972L12.095 164.132C8.99322 164.148 6.4574 161.639 6.44131 158.537C6.42521 155.435 8.93485 152.9 12.0366 152.884C14.6605 152.87 16.9997 154.382 17.8577 156.65C18.3396 157.922 19.6597 158.666 21.0027 158.417C22.3401 158.168 23.3069 156.999 23.2998 155.637C23.2757 150.986 27.0413 147.181 31.6926 147.157C36.3439 147.133 40.1488 150.899 40.1729 155.55C40.181 157.102 41.4474 158.355 42.9996 158.347C44.5491 158.339 45.8182 159.595 45.8262 161.145C45.8343 162.694 44.5787 163.964 43.0291 163.972Z" fill="url(#paint0_linear)"/>
<path d="M166.036 22.7212L112.604 22.9984C111.052 23.0065 109.798 24.2729 109.806 25.8251C109.815 27.3773 111.081 28.6306 112.633 28.6225L163.252 28.3599L163.567 89.0638L86.4163 12.7093C85.8621 12.1608 85.138 11.892 84.4153 11.8957C83.6926 11.8995 82.9713 12.1761 82.4228 12.73L6.08534 89.878L5.77039 29.177L36.7045 29.0165C38.2567 29.0085 39.5101 27.742 39.502 26.1898L39.4436 14.9412C39.4356 13.389 38.1692 12.1357 36.617 12.1437L33.8046 12.1583L33.7754 6.53385L50.6485 6.44631L50.6777 12.0708L47.8656 12.0854C46.3134 12.0934 45.0601 13.3598 45.0681 14.912L45.1265 26.1607C45.1345 27.7129 46.401 28.9662 47.9531 28.9581L56.3897 28.9144C57.9419 28.9063 59.1952 27.6399 59.1872 26.0877C59.1791 24.5355 57.9127 23.2822 56.3605 23.2902L50.736 23.3194L50.7069 17.6949L53.5189 17.6803C55.0711 17.6723 56.3245 16.4059 56.3164 14.8537L56.258 3.60472C56.25 2.05253 54.9836 0.799184 53.4314 0.807237L30.9341 0.923967C29.3819 0.932021 28.1286 2.19844 28.1366 3.75063L28.195 14.9993C28.2031 16.5515 29.4695 17.8048 31.0217 17.7967L33.8338 17.7821L33.8629 23.4066L2.9288 23.5671C2.18368 23.571 1.46811 23.87 0.944886 24.4013C0.419015 24.9304 0.127456 25.649 0.131322 26.3941L0.50731 96.6985C0.51322 97.8375 1.20466 98.8575 2.25885 99.2881C2.60827 99.4296 2.97147 99.4982 3.33431 99.4964C4.06822 99.4925 4.78681 99.2021 5.31822 98.6622L84.4505 18.6756L164.437 97.8362C164.977 98.3706 165.698 98.6536 166.429 98.6498C166.792 98.6479 167.157 98.5758 167.505 98.4303C168.552 97.9889 169.233 96.9591 169.227 95.8228L168.862 25.5186C168.854 23.9665 167.588 22.7131 166.036 22.7212Z" fill="url(#paint1_linear)"/>
<path d="M158.241 146.501L158.008 101.506C158 99.9536 156.734 98.7003 155.181 98.7083C153.629 98.7164 152.376 99.9828 152.384 101.535L152.624 147.916C152.128 148.178 151.646 148.467 151.195 148.793C148.879 144.142 144.064 140.95 138.527 140.979C131.592 141.015 125.839 146.092 124.732 152.71C121.357 153.83 118.924 157.023 118.944 160.766C118.949 161.759 119.156 162.694 119.479 163.575L71.1511 163.826C69.5989 163.834 68.3456 165.101 68.3536 166.653C68.3617 168.205 69.6281 169.458 71.1803 169.45L127.424 169.158L138.673 169.1L158.358 168.998C164.562 168.966 169.581 163.895 169.548 157.691C169.516 151.488 164.445 146.468 158.241 146.501ZM158.329 163.374L138.644 163.476L127.395 163.534C125.845 163.542 124.576 162.286 124.568 160.737C124.56 159.187 125.816 157.918 127.366 157.91C128.918 157.902 130.171 156.636 130.163 155.083C130.139 150.432 133.905 146.627 138.556 146.603C143.207 146.579 147.012 150.345 147.036 154.996C147.043 156.357 148.023 157.516 149.362 157.751C150.699 157.989 152.02 157.228 152.489 155.952C153.323 153.675 155.647 152.139 158.27 152.125C161.372 152.109 163.908 154.619 163.924 157.721C163.94 160.823 161.431 163.358 158.329 163.374Z" fill="url(#paint2_linear)"/>
<path d="M95.9062 56.8321C95.874 50.6283 90.8027 45.6096 84.5992 45.6418C78.3954 45.674 73.3768 50.7453 73.409 56.9488C73.4411 63.1523 78.5121 68.1713 84.7159 68.1391C90.9198 68.1069 95.9384 63.0356 95.9062 56.8321ZM79.0331 56.9196C79.017 53.8179 81.5263 51.2821 84.6284 51.266C87.7301 51.2499 90.266 53.7592 90.282 56.8613C90.2981 59.963 87.7888 62.4988 84.6868 62.5149C81.585 62.5307 79.0492 60.0214 79.0331 56.9196Z" fill="url(#paint3_linear)"/>
<path d="M138.294 95.9835L115.796 96.1003C114.244 96.1083 112.991 97.3747 112.999 98.9269L113.159 129.861L110.347 129.876C108.795 129.884 107.541 131.15 107.55 132.702C107.558 134.255 108.824 135.508 110.376 135.5L144.122 135.325C145.675 135.317 146.928 134.05 146.92 132.498C146.912 130.946 145.645 129.693 144.093 129.701L141.281 129.715L141.121 98.781C141.113 97.2288 139.846 95.9755 138.294 95.9835ZM135.657 129.744L118.784 129.832L118.725 118.583L135.598 118.496L135.657 129.744ZM135.569 112.871L118.696 112.959L118.638 101.71L135.511 101.623L135.569 112.871Z" fill="url(#paint4_linear)"/>
<path d="M113.29 155.17C113.282 153.618 112.016 152.365 110.464 152.373L102.027 152.417L101.75 98.9853C101.742 97.4332 100.475 96.1798 98.9231 96.1879L70.8014 96.3338C69.2492 96.3418 67.9959 97.6083 68.0039 99.1604L68.2812 152.592L59.8446 152.636C58.2924 152.644 57.0391 153.91 57.0471 155.462L57.1055 166.711C57.1136 168.263 58.38 169.516 59.9322 169.508C61.4844 169.5 62.7377 168.234 62.7297 166.682L62.6859 158.245L110.493 157.997C112.045 157.989 113.298 156.723 113.29 155.17ZM96.2567 124.324L93.4446 124.339C91.8924 124.347 90.639 125.613 90.6471 127.165C90.6552 128.718 91.9216 129.971 93.4738 129.963L96.2858 129.948L96.4026 152.446L73.905 152.563L73.6423 101.943L96.1399 101.827L96.2567 124.324V124.324Z" fill="url(#paint5_linear)"/>
<path d="M53.9279 96.4206L31.4307 96.5373C29.8785 96.5453 28.6252 97.8117 28.6332 99.3639L28.7937 130.298L25.9813 130.313C24.4291 130.321 23.1758 131.587 23.1838 133.139C23.1919 134.692 24.4583 135.945 26.0105 135.937L59.7567 135.762C61.3089 135.754 62.5622 134.488 62.5542 132.935C62.5461 131.383 61.2797 130.13 59.7275 130.138L56.9154 130.152L56.7549 99.2184C56.7469 97.6658 55.4805 96.4125 53.9279 96.4206ZM51.291 130.181L34.4179 130.269L34.3595 119.02L51.2326 118.933L51.291 130.181ZM51.2034 113.308L34.3303 113.396L34.2719 102.147L51.1451 102.06L51.2034 113.308Z" fill="url(#paint6_linear)"/>
<defs>
<linearGradient id="paint0_linear" x1="25.8204" y1="99.3794" x2="26.1852" y2="169.684" gradientUnits="userSpaceOnUse">
<stop stop-color="#004279"/>
<stop offset="1" stop-color="#55A048"/>
</linearGradient>
<linearGradient id="paint1_linear" x1="84.3653" y1="0.646733" x2="84.876" y2="99.0733" gradientUnits="userSpaceOnUse">
<stop stop-color="#004279"/>
<stop offset="1" stop-color="#55A048"/>
</linearGradient>
<linearGradient id="paint2_linear" x1="118.623" y1="98.898" x2="118.988" y2="169.202" gradientUnits="userSpaceOnUse">
<stop stop-color="#004279"/>
<stop offset="1" stop-color="#55A048"/>
</linearGradient>
<linearGradient id="paint3_linear" x1="84.5992" y1="45.6418" x2="84.7159" y2="68.1391" gradientUnits="userSpaceOnUse">
<stop stop-color="#004279"/>
<stop offset="1" stop-color="#55A048"/>
</linearGradient>
<linearGradient id="paint4_linear" x1="127.045" y1="96.0419" x2="127.249" y2="135.412" gradientUnits="userSpaceOnUse">
<stop stop-color="#004279"/>
<stop offset="1" stop-color="#55A048"/>
</linearGradient>
<linearGradient id="paint5_linear" x1="84.8623" y1="96.2608" x2="85.2417" y2="169.377" gradientUnits="userSpaceOnUse">
<stop stop-color="#004279"/>
<stop offset="1" stop-color="#55A048"/>
</linearGradient>
<linearGradient id="paint6_linear" x1="42.6793" y1="96.4789" x2="42.8836" y2="135.85" gradientUnits="userSpaceOnUse">
<stop stop-color="#004279"/>
<stop offset="1" stop-color="#55A048"/>
</linearGradient>
</defs>
</svg>
