<svg width="201" height="201" viewBox="0 0 201 201" fill="none" xmlns="http://www.w3.org/2000/svg">
<g filter="url(#filter0_d)">
<rect x="4" y="2.70038" width="189.643" height="189.643" rx="94.8215" transform="rotate(-0.815882 4 2.70038)" fill="url(#paint0_linear)"/>
</g>
<path d="M139.323 84.8249L135.306 83.4861V64.371H128.613V60.3548H125.935V64.371H123.258V57.6774H120.581V64.371H117.903V55H115.226V64.371H108.532V74.561L104.516 73.2223V113.903H101.839V138H142V113.903H139.323V84.8249ZM111.21 72.4032H125.935V69.7258H111.21V67.0484H132.629V69.7258H128.613V72.4032H132.629V82.5945L111.21 75.4552V72.4032ZM107.194 76.939L136.645 86.7558V113.903H133.968V97.8387H131.29V113.903H128.613V93.8226H125.935V113.903H123.258V89.8065H120.581V113.903H117.903V85.7903H115.226V113.903H112.548V81.7742H109.871V113.903H107.194V76.939ZM104.516 135.323V132.645H132.629V129.968H104.516V116.581H139.323V129.968H135.306V132.645H139.323V135.323H104.516ZM107.194 127.29H115.226V119.258H107.194V127.29ZM109.871 121.935H112.548V124.613H109.871V121.935ZM117.903 127.29H125.935V119.258H117.903V127.29ZM120.581 121.935H123.258V124.613H120.581V121.935ZM136.645 119.258H128.613V127.29H136.645V119.258ZM133.968 124.613H131.29V121.935H133.968V124.613ZM96.4839 68.3871H93.8065V63.0323H91.129V55H67.0323V63.0323H64.3548V68.3871H61.6774V73.7419H59V138H99.1613V73.7419H96.4839V68.3871ZM69.7097 57.6774H88.4516V63.0323H69.7097V57.6774ZM67.0323 65.7097H91.129V68.3871H67.0323V65.7097ZM64.3548 71.0645H93.8065V73.7419H64.3548V71.0645ZM61.6774 135.323V81.7742H88.4516V79.0968H61.6774V76.4194H96.4839V79.0968H91.129V81.7742H96.4839V135.323H61.6774ZM67.0323 85.7903H69.7097V88.4677H67.0323V85.7903ZM72.3871 85.7903H75.0645V88.4677H72.3871V85.7903ZM77.7419 85.7903H80.4194V88.4677H77.7419V85.7903ZM83.0968 85.7903H85.7742V88.4677H83.0968V85.7903ZM88.4516 85.7903H91.129V88.4677H88.4516V85.7903ZM67.0323 93.8226H69.7097V96.5H67.0323V93.8226ZM72.3871 93.8226H75.0645V96.5H72.3871V93.8226ZM77.7419 93.8226H80.4194V96.5H77.7419V93.8226ZM83.0968 93.8226H85.7742V96.5H83.0968V93.8226ZM88.4516 93.8226H91.129V96.5H88.4516V93.8226ZM67.0323 101.855H69.7097V104.532H67.0323V101.855ZM72.3871 101.855H75.0645V104.532H72.3871V101.855ZM77.7419 101.855H80.4194V104.532H77.7419V101.855ZM83.0968 101.855H85.7742V104.532H83.0968V101.855ZM88.4516 101.855H91.129V104.532H88.4516V101.855ZM67.0323 109.887H69.7097V112.565H67.0323V109.887ZM72.3871 109.887H75.0645V112.565H72.3871V109.887ZM77.7419 109.887H80.4194V112.565H77.7419V109.887ZM83.0968 109.887H85.7742V112.565H83.0968V109.887ZM88.4516 109.887H91.129V112.565H88.4516V109.887ZM67.0323 117.919H69.7097V120.597H67.0323V117.919ZM72.3871 117.919H75.0645V120.597H72.3871V117.919ZM77.7419 117.919H80.4194V120.597H77.7419V117.919ZM83.0968 117.919H85.7742V120.597H83.0968V117.919ZM88.4516 117.919H91.129V120.597H88.4516V117.919ZM67.0323 125.952H69.7097V128.629H67.0323V125.952ZM72.3871 125.952H75.0645V128.629H72.3871V125.952ZM77.7419 125.952H80.4194V128.629H77.7419V125.952ZM83.0968 125.952H85.7742V128.629H83.0968V125.952ZM88.4516 125.952H91.129V128.629H88.4516V125.952Z" fill="#F8F8FF"/>
<defs>
<filter id="filter0_d" x="0" y="0" width="200.324" height="200.324" filterUnits="userSpaceOnUse" color-interpolation-filters="sRGB">
<feFlood flood-opacity="0" result="BackgroundImageFix"/>
<feColorMatrix in="SourceAlpha" type="matrix" values="0 0 0 0 0 0 0 0 0 0 0 0 0 0 0 0 0 0 127 0"/>
<feOffset dy="4"/>
<feGaussianBlur stdDeviation="2"/>
<feColorMatrix type="matrix" values="0 0 0 0 0 0 0 0 0 0 0 0 0 0 0 0 0 0 0.25 0"/>
<feBlend mode="normal" in2="BackgroundImageFix" result="effect1_dropShadow"/>
<feBlend mode="normal" in="SourceGraphic" in2="effect1_dropShadow" result="shape"/>
</filter>
<linearGradient id="paint0_linear" x1="98.8215" y1="2.70038" x2="98.8215" y2="192.343" gradientUnits="userSpaceOnUse">
<stop stop-color="#004279"/>
<stop offset="1" stop-color="#55A048"/>
</linearGradient>
</defs>
</svg>
