<svg width="334" height="345" viewBox="0 0 334 345" fill="none" xmlns="http://www.w3.org/2000/svg">
<path d="M179.565 176.745C186.769 178.423 194.053 173.932 195.72 166.636C196.509 163.187 195.823 159.772 194.19 156.93L200.681 130.368L208.789 132.353C210.525 132.776 212.36 132.347 213.736 131.191C215.113 130.042 215.846 128.299 215.722 126.513L212.022 72.2667C211.932 70.9588 211.01 69.8546 209.723 69.5375C208.451 69.2289 207.121 69.7792 206.431 70.9032L178.132 117.325C177.198 118.851 177.052 120.733 177.73 122.391C178.428 124.044 179.847 125.271 181.597 125.7L189.701 127.679L184.199 150.158L155.901 143.648L124.019 96.952C120.207 91.3648 114.526 90.9815 107.717 90.9815C107.717 167.15 107.717 162.325 107.717 196.767H123.895C123.895 248.215 123.895 200.036 123.895 317.518H91.5497V232.466H79.7673V317.518H47.4217C47.4217 200.38 47.4217 248.088 47.4217 196.767H63.5899C63.5899 162.342 63.5899 167.161 63.5899 90.9822C55.7866 90.9822 49.4067 91.851 46.161 98.9588L1.2191 197.397C-1.86797 204.167 1.10706 212.155 7.89426 215.245C14.6258 218.33 22.6391 215.379 25.7438 208.581L47.4562 161.011V185.459H47.4217C41.1749 185.459 36.1155 190.521 36.1155 196.767V317.518C36.1155 323.764 41.1756 328.827 47.4217 328.827C47.4217 337.756 54.6591 345 63.5899 345C72.5164 345 79.7673 337.756 79.7673 328.827C81.9193 328.827 83.9388 328.218 85.6631 327.169C87.3782 328.218 89.3843 328.827 91.5497 328.827C91.5497 337.756 98.7872 345 107.718 345C116.644 345 123.895 337.756 123.895 328.827C130.142 328.827 135.201 323.764 135.201 317.518V196.767C135.201 190.521 130.142 185.459 123.895 185.459H123.86V144.517L136.612 163.198C138.516 166 141.427 167.979 144.716 168.733L179.565 176.745Z" fill="url(#paint0_radial)"/>
<path d="M96.4201 90.9824H74.9092V136.457H96.4201V90.9824Z" fill="url(#paint1_radial)"/>
<path d="M54.1872 53.755C54.3683 70.9971 68.3711 84.9217 85.6633 84.9217C102.946 84.9217 116.962 70.9971 117.142 53.755C123.24 53.5922 128.166 48.6484 128.166 42.4982C128.166 19.065 109.09 0 85.6633 0C62.2146 0 43.1475 19.065 43.1475 42.4982C43.1475 48.6491 48.0779 53.5922 54.1872 53.755ZM63.0461 21.1163V24.3189C63.0461 27.4405 65.5723 29.9723 68.6974 29.9723C71.8183 29.9723 74.3445 27.4405 74.3445 24.3189V13.5018C76.1625 12.7965 78.0446 12.2391 80.0035 11.8762V24.3189C80.0035 27.4405 82.529 29.9723 85.664 29.9723C88.7764 29.9723 91.3139 27.4405 91.3139 24.3189V11.8762C93.2735 12.2391 95.1556 12.7965 96.961 13.5018V24.3189C96.961 27.4405 99.4864 29.9723 102.621 29.9723C105.742 29.9723 108.28 27.4405 108.28 24.3189V21.1163C113.558 26.7035 116.847 34.1953 116.847 42.4982H54.4578C54.4578 34.1953 57.7514 26.7035 63.0461 21.1163Z" fill="url(#paint2_radial)"/>
<path d="M237.73 306.852H167.989C164.855 306.852 162.329 309.378 162.329 312.505V337.783C162.329 340.906 164.855 343.435 167.989 343.435H237.73C240.839 343.435 243.377 340.906 243.377 337.783V312.505C243.377 309.378 240.839 306.852 237.73 306.852Z" fill="url(#paint3_radial)"/>
<path d="M328.194 306.852H258.452C255.318 306.852 252.792 309.378 252.792 312.505V337.783C252.792 340.906 255.317 343.435 258.452 343.435H328.194C331.302 343.435 333.841 340.906 333.841 337.783V312.505C333.841 309.378 331.302 306.852 328.194 306.852Z" fill="url(#paint4_radial)"/>
<path d="M328.194 216.383H258.452C255.318 216.383 252.792 218.915 252.792 222.039V247.314C252.792 250.444 255.317 252.97 258.452 252.97H328.194C331.302 252.97 333.841 250.444 333.841 247.314V222.039C333.841 218.915 331.302 216.383 328.194 216.383Z" fill="url(#paint5_radial)"/>
<path d="M237.73 216.383H167.989C164.855 216.383 162.329 218.915 162.329 222.039V247.314C162.329 250.444 164.855 252.97 167.989 252.97H237.73C240.839 252.97 243.377 250.444 243.377 247.314V222.039C243.377 218.915 240.839 216.383 237.73 216.383Z" fill="url(#paint6_radial)"/>
<path d="M207.559 267.271V292.552C207.559 295.675 210.084 298.205 213.218 298.205H282.96C286.072 298.205 288.611 295.675 288.611 292.552V267.271C288.611 264.147 286.072 261.615 282.96 261.615H213.218C210.084 261.615 207.559 264.147 207.559 267.271Z" fill="url(#paint7_radial)"/>
<path d="M207.559 176.806V202.081C207.559 205.212 210.084 207.737 213.218 207.737H282.96C286.072 207.737 288.611 205.212 288.611 202.081V176.806C288.611 173.683 286.072 171.151 282.96 171.151H213.218C210.084 171.151 207.559 173.683 207.559 176.806Z" fill="url(#paint8_radial)"/>
<path d="M328.194 261.615H301.787C298.665 261.615 296.14 264.147 296.14 267.271V292.552C296.14 295.675 298.664 298.205 301.787 298.205H328.194C331.302 298.205 333.841 295.675 333.841 292.552V267.271C333.841 264.147 331.302 261.615 328.194 261.615Z" fill="url(#paint9_radial)"/>
<path d="M328.194 171.151H301.787C298.665 171.151 296.14 173.683 296.14 176.806V202.081C296.14 205.212 298.664 207.737 301.787 207.737H328.194C331.302 207.737 333.841 205.212 333.841 202.081V176.806C333.841 173.683 331.302 171.151 328.194 171.151Z" fill="url(#paint10_radial)"/>
<defs>
<radialGradient id="paint0_radial" cx="0" cy="0" r="1" gradientUnits="userSpaceOnUse" gradientTransform="translate(107.868 207.226) rotate(90) scale(137.774 107.868)">
<stop stop-color="#55A048"/>
<stop offset="1" stop-color="#004279"/>
</radialGradient>
<radialGradient id="paint1_radial" cx="0" cy="0" r="1" gradientUnits="userSpaceOnUse" gradientTransform="translate(85.6646 113.72) rotate(90) scale(22.7373 10.7554)">
<stop stop-color="#55A048"/>
<stop offset="1" stop-color="#004279"/>
</radialGradient>
<radialGradient id="paint2_radial" cx="0" cy="0" r="1" gradientUnits="userSpaceOnUse" gradientTransform="translate(85.6566 42.4609) rotate(90) scale(42.4609 42.5091)">
<stop stop-color="#55A048"/>
<stop offset="1" stop-color="#004279"/>
</radialGradient>
<radialGradient id="paint3_radial" cx="0" cy="0" r="1" gradientUnits="userSpaceOnUse" gradientTransform="translate(202.853 325.144) rotate(90) scale(18.2917 40.5238)">
<stop stop-color="#55A048"/>
<stop offset="1" stop-color="#004279"/>
</radialGradient>
<radialGradient id="paint4_radial" cx="0" cy="0" r="1" gradientUnits="userSpaceOnUse" gradientTransform="translate(293.317 325.144) rotate(90) scale(18.2917 40.5241)">
<stop stop-color="#55A048"/>
<stop offset="1" stop-color="#004279"/>
</radialGradient>
<radialGradient id="paint5_radial" cx="0" cy="0" r="1" gradientUnits="userSpaceOnUse" gradientTransform="translate(293.317 234.676) rotate(90) scale(18.2934 40.5241)">
<stop stop-color="#55A048"/>
<stop offset="1" stop-color="#004279"/>
</radialGradient>
<radialGradient id="paint6_radial" cx="0" cy="0" r="1" gradientUnits="userSpaceOnUse" gradientTransform="translate(202.853 234.676) rotate(90) scale(18.2934 40.5238)">
<stop stop-color="#55A048"/>
<stop offset="1" stop-color="#004279"/>
</radialGradient>
<radialGradient id="paint7_radial" cx="0" cy="0" r="1" gradientUnits="userSpaceOnUse" gradientTransform="translate(248.085 279.91) rotate(90) scale(18.2949 40.5262)">
<stop stop-color="#55A048"/>
<stop offset="1" stop-color="#004279"/>
</radialGradient>
<radialGradient id="paint8_radial" cx="0" cy="0" r="1" gradientUnits="userSpaceOnUse" gradientTransform="translate(248.085 189.444) rotate(90) scale(18.2927 40.5262)">
<stop stop-color="#55A048"/>
<stop offset="1" stop-color="#004279"/>
</radialGradient>
<radialGradient id="paint9_radial" cx="0" cy="0" r="1" gradientUnits="userSpaceOnUse" gradientTransform="translate(314.99 279.91) rotate(90) scale(18.2949 18.8505)">
<stop stop-color="#55A048"/>
<stop offset="1" stop-color="#004279"/>
</radialGradient>
<radialGradient id="paint10_radial" cx="0" cy="0" r="1" gradientUnits="userSpaceOnUse" gradientTransform="translate(314.99 189.444) rotate(90) scale(18.2927 18.8505)">
<stop stop-color="#55A048"/>
<stop offset="1" stop-color="#004279"/>
</radialGradient>
</defs>
</svg>
