<svg width="201" height="201" viewBox="0 0 201 201" fill="none" xmlns="http://www.w3.org/2000/svg">
<g filter="url(#filter0_d)">
<rect x="4" y="2.70038" width="189.643" height="189.643" rx="94.8215" transform="rotate(-0.815882 4 2.70038)" fill="url(#paint0_linear)"/>
</g>
<path d="M80.8368 136.259C80.2733 133.094 77.4921 130.69 74.1697 130.707C71.5168 130.721 69.2263 132.274 68.1398 134.514C67.9221 134.36 67.6896 134.224 67.4505 134.101L67.3352 111.88C67.3314 111.137 66.7247 110.536 65.981 110.54C65.2374 110.544 64.6369 111.151 64.6408 111.894L64.7526 133.451C61.7806 133.466 59.376 135.896 59.3914 138.868C59.4069 141.84 61.8365 144.245 64.8085 144.229L79.6289 144.152C81.8573 144.141 83.6613 142.318 83.6498 140.09C83.6405 138.296 82.459 136.779 80.8368 136.259ZM79.6149 141.458L64.7945 141.535C63.3085 141.542 62.0936 140.34 62.0859 138.854C62.0782 137.368 63.2806 136.153 64.7666 136.146C66.0237 136.139 67.1444 136.863 67.5555 137.95C67.7863 138.559 68.4188 138.916 69.0622 138.796C69.7029 138.677 70.1661 138.117 70.1627 137.465C70.1511 135.236 71.9552 133.414 74.1836 133.402C76.412 133.39 78.2349 135.194 78.2465 137.423C78.2504 138.167 78.8571 138.767 79.6007 138.763C80.3431 138.759 80.9511 139.361 80.955 140.103C80.9588 140.846 80.3573 141.454 79.6149 141.458Z" fill="white"/>
<path d="M138.547 73.7854L112.948 73.9182C112.204 73.9221 111.604 74.5288 111.607 75.2725C111.611 76.0161 112.218 76.6166 112.962 76.6127L137.213 76.4869L137.364 105.57L100.401 68.9888C100.136 68.726 99.789 68.5972 99.4428 68.599C99.0965 68.6008 98.751 68.7334 98.4882 68.9987L61.9154 105.96L61.7646 76.8784L76.5849 76.8015C77.3285 76.7976 77.929 76.1909 77.9251 75.4472L77.8972 70.0581C77.8933 69.3145 77.2866 68.714 76.5429 68.7178L75.1955 68.7248L75.1815 66.0302L83.2653 65.9882L83.2793 68.6829L81.9321 68.6899C81.1884 68.6937 80.588 69.3005 80.5918 70.0441L80.6198 75.4333C80.6236 76.1769 81.2304 76.7774 81.974 76.7735L86.0159 76.7525C86.7595 76.7487 87.36 76.1419 87.3562 75.3983C87.3523 74.6547 86.7456 74.0542 86.0019 74.058L83.3073 74.072L83.2933 71.3774L84.6405 71.3704C85.3842 71.3665 85.9846 70.7598 85.9808 70.0162L85.9528 64.6269C85.949 63.8832 85.3422 63.2828 84.5986 63.2866L73.8203 63.3425C73.0767 63.3464 72.4762 63.9531 72.4801 64.6968L72.508 70.0859C72.5119 70.8296 73.1186 71.43 73.8623 71.4262L75.2095 71.4192L75.2235 74.1138L60.4032 74.1907C60.0462 74.1926 59.7034 74.3358 59.4527 74.5904C59.2007 74.8438 59.0611 75.1881 59.0629 75.5451L59.243 109.227C59.2459 109.773 59.5771 110.262 60.0822 110.468C60.2496 110.536 60.4236 110.569 60.5974 110.568C60.9491 110.566 61.2933 110.427 61.5479 110.168L99.4596 71.8472L137.781 109.773C138.039 110.029 138.385 110.164 138.735 110.162C138.909 110.161 139.084 110.127 139.251 110.057C139.752 109.846 140.078 109.352 140.075 108.808L139.901 75.1257C139.897 74.382 139.29 73.7816 138.547 73.7854Z" fill="white"/>
<path d="M134.812 133.087L134.7 111.531C134.696 110.787 134.09 110.187 133.346 110.19C132.602 110.194 132.002 110.801 132.006 111.545L132.121 133.766C131.883 133.891 131.652 134.029 131.436 134.185C130.326 131.957 128.02 130.428 125.367 130.442C122.045 130.459 119.288 132.892 118.758 136.062C117.141 136.599 115.975 138.128 115.985 139.922C115.987 140.397 116.086 140.846 116.241 141.268L93.0876 141.388C92.344 141.392 91.7435 141.998 91.7474 142.742C91.7512 143.486 92.358 144.086 93.1016 144.082L120.048 143.943L125.437 143.915L134.868 143.866C137.84 143.85 140.245 141.421 140.229 138.449C140.214 135.477 137.784 133.072 134.812 133.087ZM134.854 141.171L125.423 141.22L120.034 141.248C119.291 141.252 118.683 140.65 118.679 139.908C118.676 139.165 119.277 138.557 120.02 138.554C120.763 138.55 121.364 137.943 121.36 137.199C121.348 134.971 123.152 133.148 125.381 133.136C127.609 133.125 129.432 134.929 129.444 137.157C129.447 137.809 129.916 138.365 130.558 138.477C131.198 138.591 131.831 138.227 132.056 137.615C132.456 136.525 133.569 135.789 134.826 135.782C136.312 135.774 137.527 136.977 137.534 138.463C137.542 139.949 136.34 141.163 134.854 141.171Z" fill="white"/>
<path d="M104.948 90.1278C104.932 87.1556 102.503 84.7512 99.5307 84.7666C96.5585 84.782 94.1541 87.2116 94.1696 90.1837C94.185 93.1557 96.6144 95.5603 99.5867 95.5449C102.559 95.5294 104.963 93.0998 104.948 90.1278ZM96.8641 90.1697C96.8563 88.6837 98.0585 87.4688 99.5447 87.4611C101.031 87.4534 102.246 88.6556 102.253 90.1417C102.261 91.6278 101.059 92.8427 99.5727 92.8504C98.0867 92.8579 96.8718 91.6557 96.8641 90.1697Z" fill="white"/>
<path d="M125.255 108.885L114.477 108.941C113.733 108.945 113.133 109.551 113.137 110.295L113.213 125.115L111.866 125.122C111.123 125.126 110.522 125.733 110.526 126.477C110.53 127.22 111.137 127.821 111.88 127.817L128.048 127.733C128.791 127.729 129.392 127.122 129.388 126.379C129.384 125.635 128.777 125.035 128.034 125.039L126.687 125.046L126.61 110.225C126.606 109.482 125.999 108.881 125.255 108.885ZM123.992 125.06L115.908 125.101L115.88 119.712L123.964 119.67L123.992 125.06ZM123.95 116.976L115.866 117.018L115.838 111.629L123.922 111.587L123.95 116.976Z" fill="white"/>
<path d="M113.277 137.241C113.273 136.497 112.666 135.897 111.922 135.901L107.88 135.922L107.748 110.323C107.744 109.58 107.137 108.979 106.393 108.983L92.9205 109.053C92.1768 109.057 91.5763 109.663 91.5802 110.407L91.713 136.006L87.6711 136.027C86.9275 136.031 86.327 136.637 86.3309 137.381L86.3588 142.77C86.3627 143.514 86.9694 144.114 87.7131 144.11C88.4567 144.106 89.0572 143.5 89.0533 142.756L89.0324 138.714L111.936 138.595C112.68 138.592 113.28 137.985 113.277 137.241ZM105.116 122.463L103.769 122.47C103.025 122.474 102.425 123.08 102.428 123.824C102.432 124.568 103.039 125.168 103.783 125.164L105.13 125.157L105.186 135.936L94.4074 135.992L94.2815 111.74L105.06 111.684L105.116 122.463Z" fill="white"/>
<path d="M84.8363 109.095L74.058 109.151C73.3144 109.154 72.7139 109.761 72.7178 110.505L72.7946 125.325L71.4472 125.332C70.7036 125.336 70.1031 125.943 70.107 126.686C70.1108 127.43 70.7176 128.031 71.4612 128.027L87.6288 127.943C88.3724 127.939 88.9729 127.332 88.969 126.589C88.9652 125.845 88.3585 125.245 87.6148 125.248L86.2676 125.255L86.1907 110.435C86.1868 109.691 85.5801 109.091 84.8363 109.095ZM83.5729 125.269L75.4891 125.311L75.4612 119.922L83.545 119.88L83.5729 125.269ZM83.531 117.185L75.4472 117.227L75.4192 111.838L83.503 111.796L83.531 117.185Z" fill="white"/>
<defs>
<filter id="filter0_d" x="0" y="0" width="200.324" height="200.324" filterUnits="userSpaceOnUse" color-interpolation-filters="sRGB">
<feFlood flood-opacity="0" result="BackgroundImageFix"/>
<feColorMatrix in="SourceAlpha" type="matrix" values="0 0 0 0 0 0 0 0 0 0 0 0 0 0 0 0 0 0 127 0"/>
<feOffset dy="4"/>
<feGaussianBlur stdDeviation="2"/>
<feColorMatrix type="matrix" values="0 0 0 0 0 0 0 0 0 0 0 0 0 0 0 0 0 0 0.25 0"/>
<feBlend mode="normal" in2="BackgroundImageFix" result="effect1_dropShadow"/>
<feBlend mode="normal" in="SourceGraphic" in2="effect1_dropShadow" result="shape"/>
</filter>
<linearGradient id="paint0_linear" x1="98.8215" y1="2.70038" x2="98.8215" y2="192.343" gradientUnits="userSpaceOnUse">
<stop stop-color="#004279"/>
<stop offset="1" stop-color="#55A048"/>
</linearGradient>
</defs>
</svg>
