<svg width="191" height="191" viewBox="0 0 191 191" fill="none" xmlns="http://www.w3.org/2000/svg">
<path d="M51.0771 171.458C49.759 164.056 43.2536 158.433 35.4824 158.473C29.2774 158.505 23.9198 162.138 21.3784 167.376C20.8691 167.017 20.3253 166.698 19.7662 166.411L19.4965 114.435C19.4874 112.696 18.0683 111.292 16.3289 111.301C14.5895 111.31 13.185 112.729 13.194 114.468L13.4556 164.89C6.50387 164.926 0.879571 170.609 0.915642 177.561C0.951714 184.513 6.63468 190.137 13.5864 190.101L48.2516 189.921C53.4639 189.894 57.6837 185.63 57.6567 180.418C57.6349 176.224 54.8714 172.674 51.0771 171.458ZM48.2189 183.618L13.5537 183.798C10.0778 183.816 7.23617 181.004 7.21814 177.528C7.2001 174.052 10.0124 171.211 13.4883 171.193C16.4287 171.178 19.05 172.872 20.0116 175.413C20.5515 176.838 22.0309 177.672 23.5358 177.393C25.0345 177.114 26.1179 175.804 26.11 174.279C26.083 169.066 30.3028 164.803 35.5151 164.776C40.7274 164.748 44.9912 168.968 45.0182 174.181C45.0273 175.92 46.4464 177.325 48.1858 177.315C49.9223 177.306 51.3444 178.714 51.3534 180.45C51.3624 182.187 49.9554 183.609 48.2189 183.618Z" fill="url(#paint0_linear)"/>
<path d="M186.062 25.3308L126.186 25.6415C124.446 25.6505 123.042 27.0697 123.051 28.8091C123.06 30.5485 124.479 31.953 126.218 31.944L182.943 31.6497L183.296 99.6754L96.8393 14.1114C96.2183 13.4967 95.4068 13.1955 94.5969 13.1997C93.7871 13.2039 92.9788 13.5139 92.3641 14.1346L6.81932 100.588L6.46638 32.5654L41.1316 32.3855C42.871 32.3765 44.2755 30.9573 44.2665 29.2179L44.2011 16.6125C44.1921 14.8731 42.7729 13.4686 41.0335 13.4776L37.8819 13.494L37.8492 7.19112L56.7574 7.09301L56.7901 13.3959L53.6388 13.4122C51.8994 13.4213 50.4949 14.8404 50.5039 16.5798L50.5693 29.1852C50.5784 30.9246 51.9975 32.3291 53.7369 32.3201L63.1911 32.271C64.9305 32.262 66.335 30.8428 66.326 29.1034C66.3169 27.364 64.8978 25.9595 63.1584 25.9685L56.8555 26.0012L56.8228 19.6984L59.974 19.682C61.7134 19.673 63.118 18.2538 63.1089 16.5144L63.0435 3.9087C63.0345 2.16929 61.6153 0.764774 59.8759 0.773799L34.6652 0.904608C32.9258 0.913633 31.5213 2.3328 31.5303 4.07221L31.5957 16.6776C31.6047 18.417 33.0239 19.8215 34.7633 19.8125L37.9146 19.7961L37.9473 26.099L3.28206 26.2788C2.44707 26.2832 1.64518 26.6182 1.05885 27.2137C0.469553 27.8065 0.142829 28.6118 0.147161 29.4468L0.568499 108.231C0.575121 109.507 1.34996 110.65 2.5313 111.133C2.92286 111.291 3.32987 111.368 3.73647 111.366C4.5589 111.362 5.36416 111.036 5.95967 110.431L94.6364 20.7974L184.27 109.506C184.875 110.105 185.683 110.422 186.503 110.417C186.91 110.415 187.319 110.335 187.709 110.172C188.882 109.677 189.644 108.523 189.638 107.25L189.229 28.4657C189.22 26.7263 187.801 25.3218 186.062 25.3308Z" fill="url(#paint1_linear)"/>
<path d="M177.327 164.04L177.065 113.618C177.056 111.879 175.637 110.474 173.898 110.483C172.158 110.492 170.754 111.912 170.763 113.651L171.033 165.626C170.476 165.919 169.936 166.243 169.43 166.609C166.835 161.397 161.44 157.82 155.235 157.852C147.464 157.892 141.017 163.583 139.776 170.998C135.994 172.253 133.268 175.831 133.289 180.026C133.295 181.138 133.527 182.187 133.889 183.174L79.7324 183.455C77.993 183.464 76.5885 184.883 76.5975 186.623C76.6065 188.362 78.0257 189.767 79.7651 189.758L142.793 189.431L155.398 189.365L177.457 189.251C184.41 189.215 190.034 183.532 189.998 176.58C189.962 169.629 184.279 164.004 177.327 164.04ZM177.425 182.948L155.366 183.063L142.76 183.128C141.023 183.137 139.601 181.73 139.592 179.993C139.583 178.257 140.991 176.835 142.727 176.826C144.467 176.817 145.871 175.397 145.862 173.658C145.835 168.446 150.055 164.182 155.267 164.155C160.48 164.128 164.743 168.348 164.77 173.56C164.778 175.085 165.876 176.384 167.377 176.648C168.875 176.914 170.355 176.061 170.88 174.631C171.815 172.08 174.419 170.359 177.359 170.343C180.835 170.325 183.677 173.137 183.695 176.613C183.713 180.09 180.901 182.93 177.425 182.948Z" fill="url(#paint2_linear)"/>
<path d="M107.473 63.5561C107.437 56.604 101.754 50.9801 94.8026 51.0161C87.8505 51.0522 82.2266 56.7352 82.2627 63.6869C82.2987 70.6386 87.9813 76.2629 94.9334 76.2269C101.886 76.1908 107.509 70.5078 107.473 63.5561ZM88.5652 63.6542C88.5471 60.1783 91.3591 57.3367 94.8353 57.3186C98.3112 57.3006 101.153 60.1126 101.171 63.5888C101.189 67.0647 98.377 69.9063 94.9007 69.9244C91.4249 69.942 88.5832 67.1301 88.5652 63.6542Z" fill="url(#paint3_linear)"/>
<path d="M154.973 107.43L129.762 107.56C128.023 107.569 126.618 108.989 126.627 110.728L126.807 145.393L123.656 145.409C121.917 145.418 120.512 146.838 120.521 148.577C120.53 150.316 121.949 151.721 123.689 151.712L161.505 151.516C163.245 151.507 164.649 150.088 164.64 148.348C164.631 146.609 163.212 145.204 161.473 145.213L158.321 145.23L158.141 110.564C158.132 108.825 156.713 107.42 154.973 107.43ZM152.018 145.262L133.11 145.36L133.045 132.755L151.953 132.657L152.018 145.262ZM151.92 126.354L133.012 126.452L132.947 113.847L151.855 113.749L151.92 126.354Z" fill="url(#paint4_linear)"/>
<path d="M126.954 173.755C126.945 172.016 125.526 170.611 123.787 170.62L114.332 170.669L114.022 110.793C114.013 109.054 112.594 107.65 110.854 107.659L79.3406 107.822C77.6012 107.831 76.1967 109.25 76.2057 110.99L76.5164 170.866L67.0623 170.915C65.3228 170.924 63.9183 172.343 63.9274 174.082L63.9928 186.688C64.0018 188.427 65.421 189.832 67.1604 189.822C68.8998 189.813 70.3043 188.394 70.2953 186.655L70.2462 177.201L123.819 176.923C125.559 176.914 126.963 175.495 126.954 173.755ZM107.866 139.188L104.715 139.205C102.975 139.214 101.571 140.633 101.58 142.372C101.589 144.112 103.008 145.516 104.748 145.507L107.899 145.491L108.03 170.702L82.8185 170.833L82.5242 114.108L107.735 113.977L107.866 139.188V139.188Z" fill="url(#paint5_linear)"/>
<path d="M60.4319 107.919L35.2212 108.05C33.4818 108.059 32.0773 109.478 32.0863 111.218L32.2662 145.883L29.1146 145.899C27.3751 145.908 25.9706 147.327 25.9797 149.067C25.9887 150.806 27.4078 152.211 29.1473 152.202L66.9637 152.006C68.7031 151.997 70.1076 150.578 70.0986 148.838C70.0896 147.099 68.6704 145.694 66.931 145.703L63.7798 145.72L63.5999 111.055C63.5909 109.315 62.1717 107.91 60.4319 107.919ZM57.4769 145.752L38.5687 145.85L38.5033 133.245L57.4115 133.147L57.4769 145.752ZM57.3788 126.844L38.4706 126.942L38.4052 114.337L57.3134 114.238L57.3788 126.844Z" fill="url(#paint6_linear)"/>
<defs>
<linearGradient id="paint0_linear" x1="28.9346" y1="111.235" x2="29.3434" y2="190.019" gradientUnits="userSpaceOnUse">
<stop stop-color="#004279"/>
<stop offset="1" stop-color="#55A048"/>
</linearGradient>
<linearGradient id="paint1_linear" x1="94.5409" y1="0.593935" x2="95.1132" y2="110.892" gradientUnits="userSpaceOnUse">
<stop stop-color="#004279"/>
<stop offset="1" stop-color="#55A048"/>
</linearGradient>
<linearGradient id="paint2_linear" x1="132.93" y1="110.696" x2="133.339" y2="189.48" gradientUnits="userSpaceOnUse">
<stop stop-color="#004279"/>
<stop offset="1" stop-color="#55A048"/>
</linearGradient>
<linearGradient id="paint3_linear" x1="94.8026" y1="51.0161" x2="94.9334" y2="76.2269" gradientUnits="userSpaceOnUse">
<stop stop-color="#004279"/>
<stop offset="1" stop-color="#55A048"/>
</linearGradient>
<linearGradient id="paint4_linear" x1="142.368" y1="107.495" x2="142.597" y2="151.614" gradientUnits="userSpaceOnUse">
<stop stop-color="#004279"/>
<stop offset="1" stop-color="#55A048"/>
</linearGradient>
<linearGradient id="paint5_linear" x1="95.0974" y1="107.74" x2="95.5225" y2="189.675" gradientUnits="userSpaceOnUse">
<stop stop-color="#004279"/>
<stop offset="1" stop-color="#55A048"/>
</linearGradient>
<linearGradient id="paint6_linear" x1="47.8266" y1="107.985" x2="48.0555" y2="152.104" gradientUnits="userSpaceOnUse">
<stop stop-color="#004279"/>
<stop offset="1" stop-color="#55A048"/>
</linearGradient>
</defs>
</svg>
