<svg width="108" height="112" viewBox="0 0 108 112" fill="none" xmlns="http://www.w3.org/2000/svg">
<path d="M7.80422 111.725H100.844C104.796 111.725 108 108.391 108 104.277V7.44825C108 3.33458 104.796 0 100.844 0H7.80422C3.85154 0 0.647461 3.33458 0.647461 7.44825V104.277C0.647461 108.391 3.85154 111.725 7.80422 111.725ZM100.844 108.001H7.80422C5.82788 108.001 4.22584 106.334 4.22584 104.277V18.6206H104.422V104.277C104.422 106.334 102.82 108.001 100.844 108.001V108.001ZM7.80422 3.72413H100.844C102.82 3.72413 104.422 5.39142 104.422 7.44825V14.8965H4.22584V7.44825C4.22584 5.39142 5.82788 3.72413 7.80422 3.72413V3.72413Z" fill="url(#paint0_linear)"/>
<path d="M99.0533 100.471H97.2646V44.8827C97.2646 41.8122 94.8615 39.3235 91.8966 39.3235H81.1615C78.1974 39.3235 75.7935 41.8122 75.7935 44.8827V100.471H66.848V61.5592C66.848 58.4887 64.445 56.0001 61.4801 56.0001H50.745C47.78 56.0001 45.377 58.4887 45.377 61.5592V100.471H36.4315V78.2349C36.4315 75.1652 34.0284 72.6766 31.0635 72.6766H20.3284C17.3635 72.6766 14.9604 75.1652 14.9604 78.2349V100.471H11.3821V24.5003C11.3821 23.4765 10.5811 22.647 9.5933 22.647C8.60473 22.647 7.80371 23.4765 7.80371 24.5003V102.323C7.80371 103.347 8.60473 104.176 9.5933 104.176H99.0533C100.042 104.176 100.843 103.347 100.843 102.323C100.843 101.3 100.042 100.471 99.0533 100.471V100.471ZM25.6956 100.471V87.4998C25.6956 86.4769 24.8945 85.6474 23.9068 85.6474C22.9182 85.6474 22.1172 86.4769 22.1172 87.4998V100.471H18.5388V78.2349C18.5388 77.212 19.3398 76.3824 20.3284 76.3824H31.0635C32.0521 76.3824 32.8531 77.212 32.8531 78.2349V100.471H25.6956ZM56.1129 100.471V70.8233C56.1129 69.8004 55.3111 68.9708 54.3233 68.9708C53.3356 68.9708 52.5337 69.8004 52.5337 70.8233V100.471H48.9554V61.5592C48.9554 60.5354 49.7564 59.7059 50.745 59.7059H61.4801C62.4686 59.7059 63.2697 60.5354 63.2697 61.5592V100.471H56.1129ZM86.5295 100.471V52.2943C86.5295 51.2705 85.7284 50.4409 84.7399 50.4409C83.7521 50.4409 82.9511 51.2705 82.9511 52.2943V100.471H79.3719V44.8827C79.3719 43.8589 80.1737 43.0293 81.1615 43.0293H91.8966C92.8852 43.0293 93.6862 43.8589 93.6862 44.8827V100.471H86.5295Z" fill="url(#paint1_linear)"/>
<path d="M23.2413 63.2881C23.6746 63.4645 24.1567 63.4518 24.5804 63.2516C25.0049 63.0523 25.3373 62.6817 25.5031 62.2229L33.503 40.1956L47.6652 49.1924C48.4782 49.7089 49.4546 49.8539 50.37 49.5936C51.2863 49.334 52.0632 48.692 52.5238 47.8142L59.3879 34.7303L65.3669 39.7953C66.6981 40.9233 68.6027 40.8707 69.877 39.6714L80.2861 29.8757L79.9121 31.4651C79.6766 32.4582 80.2461 33.4641 81.184 33.7126C81.3225 33.7499 81.4659 33.7677 81.6093 33.7668C82.411 33.766 83.1094 33.1876 83.3041 32.3641L85.0541 24.9532C85.0701 24.8684 85.0798 24.7819 85.0838 24.6954C85.0838 24.6513 85.0958 24.6106 85.0974 24.5656C85.1046 24.3595 85.079 24.1534 85.0205 23.9558C85.0085 23.9134 84.9892 23.877 84.9732 23.8337C84.9076 23.6531 84.8154 23.4834 84.6985 23.3333C84.6849 23.3155 84.6817 23.2909 84.6657 23.2706L84.6448 23.2561L84.6232 23.2248C84.4895 23.0797 84.3333 22.9601 84.1619 22.8702C84.1194 22.8482 84.0778 22.8295 84.0337 22.8092C83.8559 22.7227 83.6645 22.6684 83.4691 22.6497H83.4602C83.3113 22.6412 83.1615 22.6523 83.0157 22.6837L74.267 24.5359C73.3491 24.7658 72.7684 25.7233 72.9535 26.7029C73.1385 27.6816 74.0227 28.3296 74.9534 28.1676L77.3691 27.6562L67.5519 36.8972L61.5728 31.8323C60.7687 31.1496 59.7203 30.8773 58.7087 31.0885C57.6963 31.2988 56.824 31.9722 56.3243 32.9272L49.4602 46.0111L35.2995 37.0126C34.4128 36.4503 33.3364 36.3316 32.3592 36.6895C31.3821 37.0465 30.6043 37.8429 30.2343 38.8649L22.2353 60.8922C22.0679 61.351 22.0807 61.8616 22.2689 62.3111C22.4579 62.7606 22.8071 63.1117 23.2413 63.2881V63.2881Z" fill="url(#paint2_linear)"/>
<defs>
<linearGradient id="paint0_linear" x1="54.3239" y1="0" x2="54.3239" y2="111.725" gradientUnits="userSpaceOnUse">
<stop stop-color="#004279"/>
<stop offset="1" stop-color="#55A048"/>
</linearGradient>
<linearGradient id="paint1_linear" x1="54.3233" y1="22.647" x2="54.3233" y2="104.176" gradientUnits="userSpaceOnUse">
<stop stop-color="#004279"/>
<stop offset="1" stop-color="#55A048"/>
</linearGradient>
<linearGradient id="paint2_linear" x1="53.6084" y1="22.647" x2="53.6084" y2="63.4117" gradientUnits="userSpaceOnUse">
<stop stop-color="#004279"/>
<stop offset="1" stop-color="#55A048"/>
</linearGradient>
</defs>
</svg>
