<svg width="201" height="201" viewBox="0 0 201 201" fill="none" xmlns="http://www.w3.org/2000/svg">
<g filter="url(#filter0_d)">
<rect x="4" y="2.70044" width="189.643" height="189.643" rx="94.8215" transform="rotate(-0.815882 4 2.70044)" fill="url(#paint0_linear)"/>
</g>
<path d="M67.9999 138H133C135.762 138 138 135.791 138 133.067V68.9333C138 66.2086 135.762 64 133 64H67.9999C65.2385 64 63 66.2086 63 68.9333V133.067C63 135.791 65.2385 138 67.9999 138ZM133 135.533H67.9999C66.6192 135.533 65.5 134.429 65.5 133.067V76.3331H135.5V133.067C135.5 134.429 134.381 135.533 133 135.533V135.533ZM67.9999 66.4666H133C134.381 66.4666 135.5 67.5709 135.5 68.9333V73.8665H65.5V68.9333C65.5 67.5709 66.6192 66.4666 67.9999 66.4666V66.4666Z" fill="white"/>
<path d="M131.75 130.546H130.5V93.7275C130.5 91.6938 128.821 90.0455 126.75 90.0455H119.25C117.179 90.0455 115.5 91.6938 115.5 93.7275V130.546H109.25V104.773C109.25 102.739 107.571 101.091 105.5 101.091H98C95.9287 101.091 94.2498 102.739 94.2498 104.773V130.546H88.0002V115.818C88.0002 113.785 86.3214 112.137 84.25 112.137H76.7501C74.6788 112.137 72.9999 113.785 72.9999 115.818V130.546H70.5V80.2275C70.5 79.5494 69.9403 79 69.2503 79C68.5596 79 68 79.5494 68 80.2275V131.772C68 132.451 68.5596 133 69.2503 133H131.75C132.44 133 133 132.451 133 131.772C133 131.095 132.44 130.546 131.75 130.546V130.546ZM80.4998 130.546V121.954C80.4998 121.277 79.9402 120.728 79.2501 120.728C78.5594 120.728 77.9998 121.277 77.9998 121.954V130.546H75.4999V115.818C75.4999 115.14 76.0595 114.591 76.7501 114.591H84.25C84.9406 114.591 85.5003 115.14 85.5003 115.818V130.546H80.4998ZM101.75 130.546V110.909C101.75 110.231 101.19 109.682 100.5 109.682C99.8099 109.682 99.2497 110.231 99.2497 110.909V130.546H96.7498V104.773C96.7498 104.095 97.3094 103.546 98 103.546H105.5C106.191 103.546 106.75 104.095 106.75 104.773V130.546H101.75ZM123 130.546V98.6365C123 97.9584 122.441 97.409 121.75 97.409C121.06 97.409 120.5 97.9584 120.5 98.6365V130.546H118V93.7275C118 93.0494 118.56 92.5 119.25 92.5H126.75C127.44 92.5 128 93.0494 128 93.7275V130.546H123Z" fill="white"/>
<path d="M78.7846 105.918C79.0873 106.035 79.4242 106.027 79.7202 105.894C80.0168 105.762 80.249 105.517 80.3648 105.213L85.9538 90.6231L95.848 96.582C96.4159 96.9241 97.098 97.0202 97.7376 96.8477C98.3777 96.6758 98.9205 96.2506 99.2423 95.6692L104.038 87.0032L108.215 90.358C109.145 91.1051 110.476 91.0702 111.366 90.2759L118.638 83.7878L118.377 84.8405C118.212 85.4983 118.61 86.1646 119.265 86.3292C119.362 86.3539 119.462 86.3657 119.562 86.3651C120.122 86.3645 120.61 85.9814 120.746 85.436L121.969 80.5275C121.98 80.4713 121.987 80.414 121.99 80.3567C121.99 80.3275 121.998 80.3006 121.999 80.2708C122.004 80.1343 121.986 79.9978 121.945 79.8669C121.937 79.8388 121.924 79.8147 121.912 79.786C121.867 79.6664 121.802 79.554 121.721 79.4546C121.711 79.4428 121.709 79.4265 121.698 79.413L121.683 79.4035L121.668 79.3827C121.574 79.2866 121.465 79.2074 121.346 79.1479C121.316 79.1333 121.287 79.1209 121.256 79.1074C121.132 79.0501 120.998 79.0142 120.862 79.0018H120.855C120.751 78.9962 120.647 79.0035 120.545 79.0243L114.433 80.2511C113.791 80.4034 113.386 81.0376 113.515 81.6864C113.644 82.3346 114.262 82.7638 114.912 82.6565L116.6 82.3178L109.741 88.4385L105.564 85.0838C105.002 84.6316 104.27 84.4513 103.563 84.5911C102.856 84.7304 102.247 85.1765 101.897 85.809L97.1019 94.4749L87.2089 88.5149C86.5894 88.1425 85.8374 88.0638 85.1547 88.3009C84.472 88.5374 83.9287 89.0648 83.6702 89.7417L78.0818 104.331C77.9649 104.635 77.9738 104.973 78.1053 105.271C78.2374 105.569 78.4813 105.801 78.7846 105.918V105.918Z" fill="white"/>
<defs>
<filter id="filter0_d" x="0" y="0" width="200.324" height="200.324" filterUnits="userSpaceOnUse" color-interpolation-filters="sRGB">
<feFlood flood-opacity="0" result="BackgroundImageFix"/>
<feColorMatrix in="SourceAlpha" type="matrix" values="0 0 0 0 0 0 0 0 0 0 0 0 0 0 0 0 0 0 127 0"/>
<feOffset dy="4"/>
<feGaussianBlur stdDeviation="2"/>
<feColorMatrix type="matrix" values="0 0 0 0 0 0 0 0 0 0 0 0 0 0 0 0 0 0 0.25 0"/>
<feBlend mode="normal" in2="BackgroundImageFix" result="effect1_dropShadow"/>
<feBlend mode="normal" in="SourceGraphic" in2="effect1_dropShadow" result="shape"/>
</filter>
<linearGradient id="paint0_linear" x1="98.8215" y1="2.70044" x2="98.8215" y2="192.343" gradientUnits="userSpaceOnUse">
<stop stop-color="#004279"/>
<stop offset="1" stop-color="#55A048"/>
</linearGradient>
</defs>
</svg>
