<svg width="228" height="228" viewBox="0 0 228 228" fill="none" xmlns="http://www.w3.org/2000/svg">
<path d="M223.06 0H4.574C2.048 0 0 2.048 0 4.574V223.062C0 225.588 2.048 227.636 4.574 227.636H137.829C140.355 227.636 142.402 225.588 142.402 223.062C142.402 220.536 140.355 218.488 137.829 218.488H9.148V111.881H72.946V155.73C72.946 158.256 74.994 160.304 77.52 160.304C80.046 160.304 82.094 158.256 82.094 155.73V59.96C82.094 57.434 80.046 55.386 77.52 55.386C74.994 55.386 72.946 57.434 72.946 59.96V102.733H9.148V9.148H133.256V66.419C133.256 68.945 135.303 70.993 137.829 70.993H186.201C188.727 70.993 190.774 68.945 190.774 66.419C190.774 63.893 188.727 61.845 186.201 61.845H142.402V9.148H218.487V151.157H137.829C135.303 151.157 133.256 153.205 133.256 155.731C133.256 158.257 135.303 160.305 137.829 160.305H218.487V218.49H186.201C183.675 218.49 181.628 220.538 181.628 223.064C181.628 225.59 183.675 227.638 186.201 227.638H223.06C225.586 227.638 227.633 225.59 227.633 223.064V4.574C227.634 2.048 225.587 0 223.06 0Z" fill="url(#paint0_radial)"/>
<defs>
<radialGradient id="paint0_radial" cx="0" cy="0" r="1" gradientUnits="userSpaceOnUse" gradientTransform="translate(113.816 113.819) rotate(90) scale(113.819 113.816)">
<stop stop-color="#004279"/>
<stop offset="1" stop-color="#55A048"/>
</radialGradient>
</defs>
</svg>
