<svg width="154" height="112" viewBox="0 0 154 112" fill="none" xmlns="http://www.w3.org/2000/svg">
<path d="M48.314 111.725H146.452C150.621 111.725 154 108.391 154 104.277V7.44825C154 3.33458 150.621 0 146.452 0H48.314C44.1448 0 40.7651 3.33458 40.7651 7.44825V104.277C40.7651 108.391 44.1448 111.725 48.314 111.725ZM146.452 108.001H48.314C46.2294 108.001 44.5396 106.334 44.5396 104.277V18.6206H150.226V104.277C150.226 106.334 148.536 108.001 146.452 108.001V108.001ZM48.314 3.72413H146.452C148.536 3.72413 150.226 5.39142 150.226 7.44825V14.8965H44.5396V7.44825C44.5396 5.39142 46.2294 3.72413 48.314 3.72413V3.72413Z" fill="url(#paint0_linear)"/>
<path d="M144.563 100.471H142.676V44.8827C142.676 41.8122 140.142 39.3235 137.014 39.3235H125.691C122.564 39.3235 120.029 41.8122 120.029 44.8827V100.471H110.593V61.5592C110.593 58.4887 108.058 56.0001 104.931 56.0001H93.6077C90.4803 56.0001 87.9456 58.4887 87.9456 61.5592V100.471H78.5099V78.2349C78.5099 75.1652 75.9752 72.6766 72.8478 72.6766H61.5245C58.3971 72.6766 55.8624 75.1652 55.8624 78.2349V100.471H52.0879V24.5003C52.0879 23.4765 51.243 22.647 50.2011 22.647C49.1584 22.647 48.3135 23.4765 48.3135 24.5003V102.323C48.3135 103.347 49.1584 104.176 50.2011 104.176H144.563C145.606 104.176 146.451 103.347 146.451 102.323C146.451 101.3 145.606 100.471 144.563 100.471V100.471ZM67.1857 100.471V87.4998C67.1857 86.4769 66.3408 85.6474 65.2989 85.6474C64.2562 85.6474 63.4113 86.4769 63.4113 87.4998V100.471H59.6368V78.2349C59.6368 77.212 60.4817 76.3824 61.5245 76.3824H72.8478C73.8905 76.3824 74.7354 77.212 74.7354 78.2349V100.471H67.1857ZM99.2698 100.471V70.8233C99.2698 69.8004 98.424 68.9708 97.3821 68.9708C96.3402 68.9708 95.4945 69.8004 95.4945 70.8233V100.471H91.72V61.5592C91.72 60.5354 92.5649 59.7059 93.6077 59.7059H104.931C105.974 59.7059 106.819 60.5354 106.819 61.5592V100.471H99.2698ZM131.353 100.471V52.2943C131.353 51.2705 130.508 50.4409 129.465 50.4409C128.423 50.4409 127.579 51.2705 127.579 52.2943V100.471H123.803V44.8827C123.803 43.8589 124.649 43.0293 125.691 43.0293H137.014C138.057 43.0293 138.902 43.8589 138.902 44.8827V100.471H131.353Z" fill="url(#paint1_linear)"/>
<path d="M64.5967 63.2881C65.0538 63.4645 65.5624 63.4518 66.0093 63.2516C66.4571 63.0523 66.8077 62.6817 66.9825 62.2229L75.4207 40.1956L90.359 49.1924C91.2165 49.7089 92.2464 49.8539 93.212 49.5936C94.1785 49.334 94.998 48.692 95.4838 47.8142L102.724 34.7303L109.031 39.7953C110.435 40.9233 112.444 40.8707 113.788 39.6714L124.767 29.8757L124.373 31.4651C124.124 32.4582 124.725 33.4641 125.714 33.7126C125.861 33.7499 126.012 33.7677 126.163 33.7668C127.009 33.766 127.745 33.1876 127.951 32.3641L129.797 24.9532C129.814 24.8684 129.824 24.7819 129.828 24.6954C129.828 24.6513 129.841 24.6106 129.842 24.5656C129.85 24.3595 129.823 24.1534 129.761 23.9558C129.748 23.9134 129.728 23.877 129.711 23.8337C129.642 23.6531 129.545 23.4834 129.422 23.3333C129.407 23.3155 129.404 23.2909 129.387 23.2706L129.365 23.2561L129.342 23.2248C129.201 23.0797 129.036 22.9601 128.855 22.8702C128.811 22.8482 128.767 22.8295 128.72 22.8092C128.533 22.7227 128.331 22.6684 128.125 22.6497H128.115C127.958 22.6412 127.8 22.6523 127.647 22.6837L118.418 24.5359C117.45 24.7658 116.838 25.7233 117.033 26.7029C117.228 27.6816 118.161 28.3296 119.142 28.1676L121.69 27.6562L111.335 36.8972L105.029 31.8323C104.18 31.1496 103.075 30.8773 102.008 31.0885C100.94 31.2988 100.02 31.9722 99.4925 32.9272L92.2523 46.0111L77.3157 37.0126C76.3805 36.4503 75.245 36.3316 74.2143 36.6895C73.1836 37.0465 72.3633 37.8429 71.973 38.8649L63.5356 60.8922C63.3591 61.351 63.3726 61.8616 63.5711 62.3111C63.7705 62.7606 64.1388 63.1117 64.5967 63.2881V63.2881Z" fill="url(#paint2_linear)"/>
<defs>
<linearGradient id="paint0_linear" x1="97.3828" y1="0" x2="97.3828" y2="111.725" gradientUnits="userSpaceOnUse">
<stop stop-color="#004279"/>
<stop offset="1" stop-color="#55A048"/>
</linearGradient>
<linearGradient id="paint1_linear" x1="97.3821" y1="22.647" x2="97.3821" y2="104.176" gradientUnits="userSpaceOnUse">
<stop stop-color="#004279"/>
<stop offset="1" stop-color="#55A048"/>
</linearGradient>
<linearGradient id="paint2_linear" x1="96.6278" y1="22.647" x2="96.6278" y2="63.4117" gradientUnits="userSpaceOnUse">
<stop stop-color="#004279"/>
<stop offset="1" stop-color="#55A048"/>
</linearGradient>
</defs>
</svg>
