<svg width="205" height="205" viewBox="0 0 205 205" fill="none" xmlns="http://www.w3.org/2000/svg">
<path d="M198.388 73.6639L188.467 70.3572V23.1452H171.936V13.2257H165.321V23.1452H158.71V6.61285H152.098V23.1452H145.483V0H138.871V23.1452H122.338V48.3133L112.419 45.0069V145.483H105.807V205H205V145.483H198.388V73.6639ZM128.952 42.9838H165.321V36.371H128.952V29.7581H181.855V36.371H171.936V42.9838H181.855V68.1551L128.952 50.5219V42.9838ZM119.033 54.1867L191.774 78.433V145.483H185.162V105.806H178.548V145.483H171.936V95.8872H165.321V145.483H158.71V85.9679H152.098V145.483H145.483V76.0483H138.871V145.483H132.257V66.1291H125.645V145.483H119.033V54.1867ZM112.419 198.388V191.774H181.855V185.162H112.419V152.098H198.388V185.162H188.467V191.774H198.388V198.388H112.419ZM119.033 178.548H138.871V158.71H119.033V178.548ZM125.645 165.321H132.257V171.936H125.645V165.321ZM145.483 178.548H165.321V158.71H145.483V178.548ZM152.098 165.321H158.71V171.936H152.098V165.321ZM191.774 158.71H171.936V178.548H191.774V158.71ZM185.162 171.936H178.548V165.321H185.162V171.936ZM92.5807 33.0645H85.9679V19.8388H79.3548V0H19.8388V19.8388H13.2257V33.0645H6.61285V46.2902H0V205H99.1936V46.2902H92.5807V33.0645ZM26.4517 6.61285H72.7419V19.8388H26.4517V6.61285ZM19.8388 26.4517H79.3548V33.0645H19.8388V26.4517ZM13.2257 39.6774H85.9679V46.2902H13.2257V39.6774ZM6.61285 198.388V66.1291H72.7419V59.5162H6.61285V52.9033H92.5807V59.5162H79.3548V66.1291H92.5807V198.388H6.61285ZM19.8388 76.0483H26.4517V82.6612H19.8388V76.0483ZM33.0645 76.0483H39.6774V82.6612H33.0645V76.0483ZM46.2902 76.0483H52.9033V82.6612H46.2902V76.0483ZM59.5162 76.0483H66.1291V82.6612H59.5162V76.0483ZM72.7419 76.0483H79.3548V82.6612H72.7419V76.0483ZM19.8388 95.8872H26.4517V102.5H19.8388V95.8872ZM33.0645 95.8872H39.6774V102.5H33.0645V95.8872ZM46.2902 95.8872H52.9033V102.5H46.2902V95.8872ZM59.5162 95.8872H66.1291V102.5H59.5162V95.8872ZM72.7419 95.8872H79.3548V102.5H72.7419V95.8872ZM19.8388 115.726H26.4517V122.338H19.8388V115.726ZM33.0645 115.726H39.6774V122.338H33.0645V115.726ZM46.2902 115.726H52.9033V122.338H46.2902V115.726ZM59.5162 115.726H66.1291V122.338H59.5162V115.726ZM72.7419 115.726H79.3548V122.338H72.7419V115.726ZM19.8388 135.564H26.4517V142.179H19.8388V135.564ZM33.0645 135.564H39.6774V142.179H33.0645V135.564ZM46.2902 135.564H52.9033V142.179H46.2902V135.564ZM59.5162 135.564H66.1291V142.179H59.5162V135.564ZM72.7419 135.564H79.3548V142.179H72.7419V135.564ZM19.8388 155.402H26.4517V162.017H19.8388V155.402ZM33.0645 155.402H39.6774V162.017H33.0645V155.402ZM46.2902 155.402H52.9033V162.017H46.2902V155.402ZM59.5162 155.402H66.1291V162.017H59.5162V155.402ZM72.7419 155.402H79.3548V162.017H72.7419V155.402ZM19.8388 175.243H26.4517V181.855H19.8388V175.243ZM33.0645 175.243H39.6774V181.855H33.0645V175.243ZM46.2902 175.243H52.9033V181.855H46.2902V175.243ZM59.5162 175.243H66.1291V181.855H59.5162V175.243ZM72.7419 175.243H79.3548V181.855H72.7419V175.243Z" fill="url(#paint0_radial)"/>
<defs>
<radialGradient id="paint0_radial" cx="0" cy="0" r="1" gradientUnits="userSpaceOnUse" gradientTransform="translate(102.5 102.5) rotate(90) scale(102.5)">
<stop stop-color="#004279"/>
<stop offset="1" stop-color="#55A048"/>
</radialGradient>
</defs>
</svg>
