<svg width="83" height="83" viewBox="0 0 83 83" fill="none" xmlns="http://www.w3.org/2000/svg">
<path d="M80.323 29.8249L76.306 28.4861V9.371H69.613V5.3548H66.935V9.371H64.258V2.6774H61.581V9.371H58.903V0H56.226V9.371H49.532V19.561L45.516 18.2223V58.903H42.839V83H83V58.903H80.323V29.8249ZM52.21 17.4032H66.935V14.7258H52.21V12.0484H73.629V14.7258H69.613V17.4032H73.629V27.5945L52.21 20.4552V17.4032ZM48.194 21.939L77.645 31.7558V58.903H74.968V42.8387H72.29V58.903H69.613V38.8226H66.935V58.903H64.258V34.8065H61.581V58.903H58.903V30.7903H56.226V58.903H53.548V26.7742H50.871V58.903H48.194V21.939ZM45.516 80.323V77.645H73.629V74.968H45.516V61.581H80.323V74.968H76.306V77.645H80.323V80.323H45.516ZM48.194 72.29H56.226V64.258H48.194V72.29ZM50.871 66.935H53.548V69.613H50.871V66.935ZM58.903 72.29H66.935V64.258H58.903V72.29ZM61.581 66.935H64.258V69.613H61.581V66.935ZM77.645 64.258H69.613V72.29H77.645V64.258ZM74.968 69.613H72.29V66.935H74.968V69.613ZM37.4839 13.3871H34.8065V8.0323H32.129V0H8.0323V8.0323H5.3548V13.3871H2.6774V18.7419H0V83H40.1613V18.7419H37.4839V13.3871ZM10.7097 2.6774H29.4516V8.0323H10.7097V2.6774ZM8.0323 10.7097H32.129V13.3871H8.0323V10.7097ZM5.3548 16.0645H34.8065V18.7419H5.3548V16.0645ZM2.6774 80.323V26.7742H29.4516V24.0968H2.6774V21.4194H37.4839V24.0968H32.129V26.7742H37.4839V80.323H2.6774ZM8.0323 30.7903H10.7097V33.4677H8.0323V30.7903ZM13.3871 30.7903H16.0645V33.4677H13.3871V30.7903ZM18.7419 30.7903H21.4194V33.4677H18.7419V30.7903ZM24.0968 30.7903H26.7742V33.4677H24.0968V30.7903ZM29.4516 30.7903H32.129V33.4677H29.4516V30.7903ZM8.0323 38.8226H10.7097V41.5H8.0323V38.8226ZM13.3871 38.8226H16.0645V41.5H13.3871V38.8226ZM18.7419 38.8226H21.4194V41.5H18.7419V38.8226ZM24.0968 38.8226H26.7742V41.5H24.0968V38.8226ZM29.4516 38.8226H32.129V41.5H29.4516V38.8226ZM8.0323 46.855H10.7097V49.532H8.0323V46.855ZM13.3871 46.855H16.0645V49.532H13.3871V46.855ZM18.7419 46.855H21.4194V49.532H18.7419V46.855ZM24.0968 46.855H26.7742V49.532H24.0968V46.855ZM29.4516 46.855H32.129V49.532H29.4516V46.855ZM8.0323 54.887H10.7097V57.565H8.0323V54.887ZM13.3871 54.887H16.0645V57.565H13.3871V54.887ZM18.7419 54.887H21.4194V57.565H18.7419V54.887ZM24.0968 54.887H26.7742V57.565H24.0968V54.887ZM29.4516 54.887H32.129V57.565H29.4516V54.887ZM8.0323 62.919H10.7097V65.597H8.0323V62.919ZM13.3871 62.919H16.0645V65.597H13.3871V62.919ZM18.7419 62.919H21.4194V65.597H18.7419V62.919ZM24.0968 62.919H26.7742V65.597H24.0968V62.919ZM29.4516 62.919H32.129V65.597H29.4516V62.919ZM8.0323 70.952H10.7097V73.629H8.0323V70.952ZM13.3871 70.952H16.0645V73.629H13.3871V70.952ZM18.7419 70.952H21.4194V73.629H18.7419V70.952ZM24.0968 70.952H26.7742V73.629H24.0968V70.952ZM29.4516 70.952H32.129V73.629H29.4516V70.952Z" fill="url(#paint0_radial)"/>
<defs>
<radialGradient id="paint0_radial" cx="0" cy="0" r="1" gradientUnits="userSpaceOnUse" gradientTransform="translate(41.5 41.5) rotate(90) scale(41.5)">
<stop stop-color="#004279"/>
<stop offset="1" stop-color="#55A048"/>
</radialGradient>
</defs>
</svg>
