<svg width="127" height="167" viewBox="0 0 127 167" fill="none" xmlns="http://www.w3.org/2000/svg">
<path d="M117.073 0.66257L8.40068 1.22643C3.76851 1.25047 0.0195534 5.03853 0.0435879 9.6707L0.815187 158.381C0.839222 163.013 4.62728 166.762 9.25945 166.738L117.932 166.174C122.564 166.15 126.313 162.362 126.289 157.73L125.518 9.01966C125.494 4.38749 121.705 0.638536 117.073 0.66257ZM5.53834 35.2024L120.288 34.607L120.883 149.357L6.13374 149.952L5.53834 35.2024ZM120.155 9.04748L120.26 29.2449L45.5478 29.6325L45.4272 6.39659L117.101 6.02471C118.777 6.01601 120.147 7.372 120.155 9.04748ZM8.4285 6.58857L40.0651 6.42442L40.1857 29.6603L5.51052 29.8403L5.40572 9.64288C5.39703 7.96739 6.75301 6.59726 8.4285 6.58857ZM117.904 160.812L9.23163 161.376C7.55614 161.384 6.18602 160.028 6.17732 158.353L6.16156 155.314L120.911 154.719L120.927 157.757C120.936 159.433 119.58 160.803 117.904 160.812Z" fill="url(#paint0_linear)"/>
<path d="M62.9743 46.7019C40.9963 46.8159 23.2085 64.7893 23.3225 86.7672C23.4366 108.745 41.4099 126.533 63.3879 126.419C85.3659 126.305 103.154 108.332 103.04 86.3536C102.926 64.3756 84.9522 46.5878 62.9743 46.7019ZM63.3601 121.057C44.3388 121.156 28.7834 105.761 28.6847 86.7394C28.586 67.7181 43.9808 52.1627 63.0021 52.064C82.0234 51.9653 97.5788 67.3602 97.6775 86.3814C97.7762 105.403 82.3814 120.958 63.3601 121.057Z" fill="url(#paint1_linear)"/>
<path d="M62.8692 26.3256C67.5014 26.3016 71.2503 22.5135 71.2263 17.8814C71.2023 13.2492 67.4142 9.50025 62.782 9.52428C58.1499 9.54832 54.4009 13.3364 54.4249 17.9686C54.449 22.6007 58.237 26.3497 62.8692 26.3256ZM62.8098 14.8864C64.4853 14.8777 65.8555 16.2337 65.8642 17.9092C65.8729 19.5847 64.5169 20.9548 62.8414 20.9635C61.1659 20.9722 59.7958 19.6162 59.7871 17.9407C59.7784 16.2652 61.1344 14.8951 62.8098 14.8864Z" fill="url(#paint2_linear)"/>
<path d="M14.2528 26.5787L31.4117 26.4897C32.8923 26.482 34.0865 25.2753 34.0788 23.7947C34.0711 22.314 32.8645 21.1198 31.3838 21.1275L14.225 21.2166C12.7443 21.2242 11.5502 22.4309 11.5579 23.9115C11.5655 25.3922 12.7722 26.5864 14.2528 26.5787Z" fill="url(#paint3_linear)"/>
<path d="M79.998 20.5172L88.5774 20.4727C90.058 20.465 91.2522 19.2583 91.2445 17.7777C91.2368 16.297 90.0302 15.1028 88.5495 15.1105L79.9701 15.155C78.4895 15.1627 77.2953 16.3693 77.303 17.85C77.3107 19.3307 78.5173 20.5249 79.998 20.5172Z" fill="url(#paint4_linear)"/>
<path d="M100.016 20.4137L108.595 20.3691C110.076 20.3615 111.27 19.1548 111.263 17.6742C111.255 16.1935 110.048 14.9993 108.568 15.007L99.9882 15.0515C98.5075 15.0592 97.3134 16.2658 97.321 17.7465C97.3287 19.2272 98.5354 20.4213 100.016 20.4137Z" fill="url(#paint5_linear)"/>
<path d="M63.0331 58.1416C47.3628 58.2229 34.6799 71.0381 34.7612 86.7084C34.8425 102.379 47.6577 115.062 63.328 114.98C78.9983 114.899 91.6812 102.084 91.5999 86.4135C91.5186 70.7432 78.7034 58.0603 63.0331 58.1416ZM63.3002 109.618C50.5866 109.684 40.1893 99.3942 40.1234 86.6806C40.0574 73.9669 50.3473 63.5697 63.0609 63.5037C75.7745 63.4378 86.1718 73.7277 86.2377 86.4413C86.3037 99.1549 76.0138 109.552 63.3002 109.618Z" fill="url(#paint6_linear)"/>
<defs>
<linearGradient id="paint0_linear" x1="62.737" y1="0.944501" x2="63.5958" y2="166.456" gradientUnits="userSpaceOnUse">
<stop stop-color="#004279"/>
<stop offset="0.447514" stop-color="#55A048"/>
<stop offset="1" stop-color="#55A048"/>
</linearGradient>
<linearGradient id="paint1_linear" x1="62.9743" y1="46.7019" x2="63.3879" y2="126.419" gradientUnits="userSpaceOnUse">
<stop stop-color="#004279"/>
<stop offset="0.447514" stop-color="#55A048"/>
<stop offset="1" stop-color="#55A048"/>
</linearGradient>
<linearGradient id="paint2_linear" x1="62.782" y1="9.52428" x2="62.8692" y2="26.3256" gradientUnits="userSpaceOnUse">
<stop stop-color="#004279"/>
<stop offset="0.447514" stop-color="#55A048"/>
<stop offset="1" stop-color="#55A048"/>
</linearGradient>
<linearGradient id="paint3_linear" x1="22.8044" y1="21.172" x2="22.8323" y2="26.5342" gradientUnits="userSpaceOnUse">
<stop stop-color="#004279"/>
<stop offset="0.447514" stop-color="#55A048"/>
<stop offset="1" stop-color="#55A048"/>
</linearGradient>
<linearGradient id="paint4_linear" x1="84.2598" y1="15.1328" x2="84.2877" y2="20.4949" gradientUnits="userSpaceOnUse">
<stop stop-color="#004279"/>
<stop offset="0.447514" stop-color="#55A048"/>
<stop offset="1" stop-color="#55A048"/>
</linearGradient>
<linearGradient id="paint5_linear" x1="104.278" y1="15.0293" x2="104.306" y2="20.3914" gradientUnits="userSpaceOnUse">
<stop stop-color="#004279"/>
<stop offset="0.447514" stop-color="#55A048"/>
<stop offset="1" stop-color="#55A048"/>
</linearGradient>
<linearGradient id="paint6_linear" x1="63.0331" y1="58.1416" x2="63.328" y2="114.98" gradientUnits="userSpaceOnUse">
<stop stop-color="#004279"/>
<stop offset="0.447514" stop-color="#55A048"/>
<stop offset="1" stop-color="#55A048"/>
</linearGradient>
</defs>
</svg>
