<svg width="128" height="128" viewBox="0 0 128 128" fill="none" xmlns="http://www.w3.org/2000/svg">
<path d="M123.871 45.995L117.677 43.9304V14.4516H107.355V8.25806H103.226V14.4516H99.0968V4.12903H94.9677V14.4516H90.8387V0H86.7097V14.4516H76.3871V30.1663L70.1935 28.1018V90.8387H66.0645V128H128V90.8387H123.871V45.995ZM80.5161 26.8387H103.226V22.7097H80.5161V18.5806H113.548V22.7097H107.355V26.8387H113.548V42.5554L80.5161 31.5454V26.8387ZM74.3226 33.8337L119.742 48.9728V90.8387H115.613V66.0645H111.484V90.8387H107.355V59.871H103.226V90.8387H99.0968V53.6774H94.9677V90.8387H90.8387V47.4839H86.7097V90.8387H82.5806V41.2903H78.4516V90.8387H74.3226V33.8337ZM70.1935 123.871V119.742H113.548V115.613H70.1935V94.9677H123.871V115.613H117.677V119.742H123.871V123.871H70.1935ZM74.3226 111.484H86.7097V99.0968H74.3226V111.484ZM78.4516 103.226H82.5806V107.355H78.4516V103.226ZM90.8387 111.484H103.226V99.0968H90.8387V111.484ZM94.9677 103.226H99.0968V107.355H94.9677V103.226ZM119.742 99.0968H107.355V111.484H119.742V99.0968ZM115.613 107.355H111.484V103.226H115.613V107.355ZM57.8064 20.6452H53.6774V12.3871H49.5484V0H12.3871V12.3871H8.25806V20.6452H4.12903V28.9032H0V128H61.9355V28.9032H57.8064V20.6452ZM16.5161 4.12903H45.4194V12.3871H16.5161V4.12903ZM12.3871 16.5161H49.5484V20.6452H12.3871V16.5161ZM8.25806 24.7742H53.6774V28.9032H8.25806V24.7742ZM4.12903 123.871V41.2903H45.4194V37.1613H4.12903V33.0323H57.8064V37.1613H49.5484V41.2903H57.8064V123.871H4.12903ZM12.3871 47.4839H16.5161V51.6129H12.3871V47.4839ZM20.6452 47.4839H24.7742V51.6129H20.6452V47.4839ZM28.9032 47.4839H33.0323V51.6129H28.9032V47.4839ZM37.1613 47.4839H41.2903V51.6129H37.1613V47.4839ZM45.4194 47.4839H49.5484V51.6129H45.4194V47.4839ZM12.3871 59.871H16.5161V64H12.3871V59.871ZM20.6452 59.871H24.7742V64H20.6452V59.871ZM28.9032 59.871H33.0323V64H28.9032V59.871ZM37.1613 59.871H41.2903V64H37.1613V59.871ZM45.4194 59.871H49.5484V64H45.4194V59.871ZM12.3871 72.2581H16.5161V76.3871H12.3871V72.2581ZM20.6452 72.2581H24.7742V76.3871H20.6452V72.2581ZM28.9032 72.2581H33.0323V76.3871H28.9032V72.2581ZM37.1613 72.2581H41.2903V76.3871H37.1613V72.2581ZM45.4194 72.2581H49.5484V76.3871H45.4194V72.2581ZM12.3871 84.6452H16.5161V88.7742H12.3871V84.6452ZM20.6452 84.6452H24.7742V88.7742H20.6452V84.6452ZM28.9032 84.6452H33.0323V88.7742H28.9032V84.6452ZM37.1613 84.6452H41.2903V88.7742H37.1613V84.6452ZM45.4194 84.6452H49.5484V88.7742H45.4194V84.6452ZM12.3871 97.0323H16.5161V101.161H12.3871V97.0323ZM20.6452 97.0323H24.7742V101.161H20.6452V97.0323ZM28.9032 97.0323H33.0323V101.161H28.9032V97.0323ZM37.1613 97.0323H41.2903V101.161H37.1613V97.0323ZM45.4194 97.0323H49.5484V101.161H45.4194V97.0323ZM12.3871 109.419H16.5161V113.548H12.3871V109.419ZM20.6452 109.419H24.7742V113.548H20.6452V109.419ZM28.9032 109.419H33.0323V113.548H28.9032V109.419ZM37.1613 109.419H41.2903V113.548H37.1613V109.419ZM45.4194 109.419H49.5484V113.548H45.4194V109.419Z" fill="url(#paint0_linear)"/>
<defs>
<linearGradient id="paint0_linear" x1="64" y1="128" x2="64" y2="0" gradientUnits="userSpaceOnUse">
<stop stop-color="#55A048"/>
<stop offset="1" stop-color="#004279"/>
</linearGradient>
</defs>
</svg>
